#usda 1.0
(
    defaultPrim = "R5"
    doc = """Generated from Composed Stage of root layer /home/fiveages/FaSim-Isaac/robots/mobile_manipulator/ARX_Lift2S_6.0/R5/R5.usd


Generated from Composed Stage of root layer /home/fiveages/FaSim-Isaac/robots/mobile_manipulator/ARX_Lift2S_6.0/R5/payloads/base.usd
"""
    metersPerUnit = 1
    subLayers = [
        @./robot.usda@
    ]
    upAxis = "Z"
)

def Xform "R5"
{
    quatd xformOp:orient = (1, 0, 0, 0)
    double3 xformOp:scale = (1, 1, 1)
    double3 xformOp:translate = (0, 0, 0)
    uniform token[] xformOpOrder = ["xformOp:translate", "xformOp:orient", "xformOp:scale"]

    def Xform "base_link"
    {
        quatd xformOp:orient = (1, 0, 0, 0)
        double3 xformOp:scale = (1, 1, 1)
        double3 xformOp:translate = (0, 0, 0)
        uniform token[] xformOpOrder = ["xformOp:translate", "xformOp:orient", "xformOp:scale"]

        def Xform "visuals" (
            instanceable = false
        )
        {
            def Xform "base_link" (
                instanceable = true
                prepend references = @./instances.usda@</Instances/mesh>
            )
            {
                token visibility = "inherited"
            }
        }

        def Xform "collisions" (
            instanceable = false
        )
        {
            def Xform "mesh_0"
            {
                uniform token purpose = "guide"
                quatd xformOp:orient = (1, 0, 0, 0)
                double3 xformOp:scale = (1, 1, 1)
                double3 xformOp:translate = (0, 0, 0.031199999153614044)
                uniform token[] xformOpOrder = ["xformOp:translate", "xformOp:orient", "xformOp:scale"]

                def Cylinder "cylinder" (
                    prepend apiSchemas = ["PhysicsCollisionAPI"]
                )
                {
                    uniform token axis = "Z"
                    float3[] extent = [(-0.0305, -0.0305, -0.03125), (0.0305, 0.0305, 0.03125)]
                    double height = 0.0625
                    double radius = 0.030500000342726707
                }
            }
        }
    }

    def Xform "link1"
    {
        quatd xformOp:orient = (1, 0, 0, 0)
        double3 xformOp:scale = (1, 1, 1)
        double3 xformOp:translate = (0, 0, 0.05649999901652336)
        uniform token[] xformOpOrder = ["xformOp:translate", "xformOp:orient", "xformOp:scale"]

        def Xform "visuals" (
            instanceable = false
        )
        {
            def Xform "link1" (
                instanceable = true
                prepend references = @./instances.usda@</Instances/mesh_1>
            )
            {
                token visibility = "inherited"
            }
        }

        def Xform "collisions" (
            instanceable = false
        )
        {
            def Xform "link1" (
                instanceable = true
                prepend references = @./instances.usda@</Instances/mesh_1_1>
            )
            {
                uniform token purpose = "guide"
                token visibility = "inherited"
            }
        }
    }

    def Scope "joints"
    {
    }

    def Xform "link2"
    {
        quatd xformOp:orient = (1, 0, 0, 0)
        double3 xformOp:scale = (1, 1, 1)
        double3 xformOp:translate = (0.019999999552965164, 0, 0.10349999368190765)
        uniform token[] xformOpOrder = ["xformOp:translate", "xformOp:orient", "xformOp:scale"]

        def Xform "visuals" (
            instanceable = false
        )
        {
            def Xform "link2" (
                instanceable = true
                prepend references = @./instances.usda@</Instances/mesh_2>
            )
            {
                token visibility = "inherited"
            }
        }

        def Xform "collisions" (
            instanceable = false
        )
        {
            def Xform "simple_link2_1"
            {
                uniform token purpose = "guide"
                quatd xformOp:orient = (0.7071067690849304, 0.7071067690849304, 0, 0)
                double3 xformOp:scale = (1, 1, 1)
                double3 xformOp:translate = (0, 0.003000000026077032, 0)
                uniform token[] xformOpOrder = ["xformOp:translate", "xformOp:orient", "xformOp:scale"]

                def Cylinder "cylinder" (
                    prepend apiSchemas = ["PhysicsCollisionAPI"]
                )
                {
                    uniform token axis = "Z"
                    float3[] extent = [(-0.03, -0.03, -0.03325), (0.03, 0.03, 0.03325)]
                    double height = 0.06650000065565109
                    double radius = 0.029999999329447746
                }
            }

            def Xform "simple_link2_2"
            {
                uniform token purpose = "guide"
                quatd xformOp:orient = (0.7071067690849304, 0.7071067690849304, 0, 0)
                double3 xformOp:scale = (1, 1, 1)
                double3 xformOp:translate = (-0.2639999985694885, 0.003000000026077032, 0)
                uniform token[] xformOpOrder = ["xformOp:translate", "xformOp:orient", "xformOp:scale"]

                def Cylinder "cylinder" (
                    prepend apiSchemas = ["PhysicsCollisionAPI"]
                )
                {
                    uniform token axis = "Z"
                    float3[] extent = [(-0.03, -0.03, -0.03325), (0.03, 0.03, 0.03325)]
                    double height = 0.06650000065565109
                    double radius = 0.029999999329447746
                }
            }

            def Xform "simple_link2_3"
            {
                uniform token purpose = "guide"
                quatd xformOp:orient = (0.7071067690849304, 0.7071067690849304, 0, 0)
                double3 xformOp:scale = (0.2639999985694885, 0.050999999046325684, 0.05000000074505806)
                double3 xformOp:translate = (-0.13199999928474426, 0.0010000000474974513, 0)
                uniform token[] xformOpOrder = ["xformOp:translate", "xformOp:orient", "xformOp:scale"]

                def Cube "box" (
                    prepend apiSchemas = ["PhysicsCollisionAPI"]
                )
                {
                    float3[] extent = [(-0.132, -0.0255, -0.025), (0.132, 0.0255, 0.025)]
                    double size = 1
                }
            }
        }
    }

    def Xform "link3"
    {
        quatd xformOp:orient = (-0.0000036199901387590216, -1, -0, 0)
        double3 xformOp:scale = (1, 1, 1)
        double3 xformOp:translate = (-0.24400000274181366, 0, 0.10349999368190765)
        uniform token[] xformOpOrder = ["xformOp:translate", "xformOp:orient", "xformOp:scale"]

        def Xform "visuals" (
            instanceable = false
        )
        {
            def Xform "link3" (
                instanceable = true
                prepend references = @./instances.usda@</Instances/mesh_3>
            )
            {
                token visibility = "inherited"
            }
        }

        def Xform "collisions" (
            instanceable = false
        )
        {
            def Xform "simple_link3_1"
            {
                uniform token purpose = "guide"
                quatd xformOp:orient = (0.7071067690849304, 0.7071067690849304, 0, 0)
                double3 xformOp:scale = (1, 1, 1)
                double3 xformOp:translate = (0.24199999868869781, 0, -0.06030000001192093)
                uniform token[] xformOpOrder = ["xformOp:translate", "xformOp:orient", "xformOp:scale"]

                def Cylinder "cylinder" (
                    prepend apiSchemas = ["PhysicsCollisionAPI"]
                )
                {
                    uniform token axis = "Z"
                    float3[] extent = [(-0.032, -0.032, -0.027), (0.032, 0.032, 0.027)]
                    double height = 0.05400000140070915
                    double radius = 0.03200000151991844
                }
            }

            def Xform "simple_link3_2"
            {
                uniform token purpose = "guide"
                quatd xformOp:orient = (0.7071067690849304, 0.7071067690849304, 0, 0)
                double3 xformOp:scale = (0.25, 0.04800000041723251, 0.05000000074505806)
                double3 xformOp:translate = (0.12999999523162842, -0.0010000000474974513, -0.06030000001192093)
                uniform token[] xformOpOrder = ["xformOp:translate", "xformOp:orient", "xformOp:scale"]

                def Cube "box" (
                    prepend apiSchemas = ["PhysicsCollisionAPI"]
                )
                {
                    float3[] extent = [(-0.125, -0.024, -0.025), (0.125, 0.024, 0.025)]
                    double size = 1
                }
            }
        }
    }

    def Xform "link4"
    {
        quatd xformOp:orient = (-0.0000036199901387590216, -1, -0, 0)
        double3 xformOp:scale = (1, 1, 1)
        double3 xformOp:translate = (0.0010000020265579224, 0.00005043439887231216, 0.16349999606609344)
        uniform token[] xformOpOrder = ["xformOp:translate", "xformOp:orient", "xformOp:scale"]

        def Xform "visuals" (
            instanceable = false
        )
        {
            def Xform "link4" (
                instanceable = true
                prepend references = @./instances.usda@</Instances/mesh_4>
            )
            {
                token visibility = "inherited"
            }
        }

        def Xform "collisions" (
            instanceable = false
        )
        {
            def Xform "simple_link4"
            {
                uniform token purpose = "guide"
                quatd xformOp:orient = (1, 0, 0, 0)
                double3 xformOp:scale = (1, 1, 1)
                double3 xformOp:translate = (0.07000000029802322, 0.00009999999747378752, -0.06499999761581421)
                uniform token[] xformOpOrder = ["xformOp:translate", "xformOp:orient", "xformOp:scale"]

                def Cylinder "cylinder" (
                    prepend apiSchemas = ["PhysicsCollisionAPI"]
                )
                {
                    uniform token axis = "Z"
                    float3[] extent = [(-0.0315, -0.0315, -0.02), (0.0315, 0.0315, 0.02)]
                    double height = 0.03999999910593033
                    double radius = 0.03150000050663948
                }
            }
        }
    }

    def Xform "link5"
    {
        quatd xformOp:orient = (-0.0000036199901387590216, -1, -0, 0)
        double3 xformOp:scale = (1, 1, 1)
        double3 xformOp:translate = (0.07120000571012497, 0.0000010381481843069196, 0.24689099192619324)
        uniform token[] xformOpOrder = ["xformOp:translate", "xformOp:orient", "xformOp:scale"]

        def Xform "visuals" (
            instanceable = false
        )
        {
            def Xform "link5" (
                instanceable = true
                prepend references = @./instances.usda@</Instances/mesh_5>
            )
            {
                token visibility = "inherited"
            }
        }

        def Xform "collisions" (
            instanceable = false
        )
        {
            def Xform "simple_link5_1"
            {
                uniform token purpose = "guide"
                quatd xformOp:orient = (0.4999999701976776, 0.4999999701976776, 0.4999999701976776, 0.4999999701976776)
                double3 xformOp:scale = (1, 1, 1)
                double3 xformOp:translate = (0.006300000008195639, 0, 0.0860000029206276)
                uniform token[] xformOpOrder = ["xformOp:translate", "xformOp:orient", "xformOp:scale"]

                def Cylinder "cylinder" (
                    prepend apiSchemas = ["PhysicsCollisionAPI"]
                )
                {
                    uniform token axis = "Z"
                    float3[] extent = [(-0.03145, -0.03145, -0.0225), (0.03145, 0.03145, 0.0225)]
                    double height = 0.04500000178813934
                    double radius = 0.031449999660253525
                }
            }

            def Xform "simple_link5_2"
            {
                uniform token purpose = "guide"
                quatd xformOp:orient = (1, 0, 0, 0)
                double3 xformOp:scale = (1, 1, 1)
                double3 xformOp:translate = (-0.00019999999494757503, 0, 0.05000000074505806)
                uniform token[] xformOpOrder = ["xformOp:translate", "xformOp:orient", "xformOp:scale"]

                def Cylinder "cylinder" (
                    prepend apiSchemas = ["PhysicsCollisionAPI"]
                )
                {
                    uniform token axis = "Z"
                    float3[] extent = [(-0.03145, -0.03145, -0.0065), (0.03145, 0.03145, 0.0065)]
                    double height = 0.013000000268220901
                    double radius = 0.031449999660253525
                }
            }
        }
    }

    def Xform "ee"
    {
        quatd xformOp:orient = (1, 0, 0, 0)
        double3 xformOp:scale = (1, 1, 1)
        double3 xformOp:translate = (0.09648600220680237, 4.343989417066041e-7, 0.16349998116493225)
        uniform token[] xformOpOrder = ["xformOp:translate", "xformOp:orient", "xformOp:scale"]

        def Xform "visuals" (
            instanceable = false
        )
        {
        }

        def Xform "collisions"
        {
        }
    }

    def Scope "Looks"
    {
    }

    def Scope "VisualMaterials"
    {
    }
}

