#usda 1.0
(
    customLayerData = {
        dictionary cameraSettings = {
            dictionary Front = {
                double3 position = (5, 0, 0)
                double radius = 5
            }
            dictionary Perspective = {
                double3 position = (0.8274613857475341, 1.8121504251694591, 0.9937177821434727)
                double3 target = (-0.02766871895929568, -0.062480270524274184, -0.09567231008502819)
            }
            dictionary Right = {
                double3 position = (0, -5, 0)
                double radius = 5
            }
            dictionary Top = {
                double3 position = (0, 0, 5)
                double radius = 5
            }
            string boundCamera = "/OmniverseKit_Persp"
        }
        dictionary omni_layer = {
            string authoring_layer = "./Omnichassis.usda"
        }
        dictionary renderSettings = {
        }
    }
    defaultPrim = "Omnichassis"
    doc = """Generated from Composed Stage of root layer /home/fiveages/distrobox/ubuntu24/FaSim-Isaac/robots/mobile_base/ARX_Lift_2S/Omnichassis/Omnichassis.usd


Generated from Composed Stage of root layer /home/fiveages/distrobox/ubuntu24/FaSim-Isaac/robots/mobile_base/ARX_Lift_2S/Omnichassis/payloads/base.usd
"""
    metersPerUnit = 1
    upAxis = "Z"
)

def Xform "Omnichassis" (
    prepend references = @./payloads/base.usda@
    variants = {
        string AC_One_Base = "base"
        string Physics = "physx"
        string Robot = "none"
        string Sensor = "none"
        string Wheel1 = "base"
        string Wheel2 = "base"
        string Wheel3 = "base"
    }
    prepend variantSets = ["Wheel1", "Wheel2", "Wheel3", "AC_One_Base"]
    append variantSets = ["Physics", "Sensor", "Robot"]
)
{
    over "holonomic_controller_02"
    {
    }

    over "holonomic_controller_03"
    {
    }

    over "wheel_3"
    {
        string isaac:nameOverride (
            displayName = "Name Override"
        )
        vector3f physics:angularVelocity = (0, 0, 0)
        rel physics:simulationOwner
        vector3f physics:velocity = (0, 0, 0)
        quatd xformOp:orient = (0.018935439385909626, 0.0016549659526496738, 0.08708331908676328, 0.9960196814118641)
        double3 xformOp:translate = (-0.35255002975463867, 0.012105722911655903, -0.24430787563323975)

        over "omnia_150"
        {
            over "base_link"
            {
                vector3f physics:angularVelocity = (0, 0, 0)
                rel physics:simulationOwner
                vector3f physics:velocity = (0, 0, 0)
                quatd xformOp:orient = (1, -0, -0, -0)
                double3 xformOp:translate = (0, 0, 0)
            }

            over "wheel_passive_0"
            {
                vector3f physics:angularVelocity = (0, 0, 0)
                rel physics:simulationOwner
                vector3f physics:velocity = (0, 0, 0)
                quatd xformOp:orient = (0.9999528922053031, -3.896039767991564e-9, -1.1020745255993296e-8, -0.009706357207997821)
                double3 xformOp:translate = (0.03849999134936011, 0.01999999900851133, 1.2767634144372764e-8)

                over "collisions"
                {
                    over "mesh_0"
                    {
                        over "sphere"
                        {
                            rel physics:simulationOwner
                        }
                    }
                }
            }

            over "wheel_passive_1"
            {
                vector3f physics:angularVelocity = (0, 0, 0)
                rel physics:simulationOwner
                vector3f physics:velocity = (0, 0, 0)
                quatd xformOp:orient = (0.9394405116388971, 0.34192838510315077, 0.007922063982529447, -0.02176569444459395)
                double3 xformOp:translate = (0.03850001275432802, 0.01532088880337074, 0.012855748794881189)

                over "collisions"
                {
                    over "mesh_0"
                    {
                        over "sphere"
                        {
                            rel physics:simulationOwner
                        }
                    }
                }
            }

            over "wheel_passive_2"
            {
                vector3f physics:angularVelocity = (0, 0, 0)
                rel physics:simulationOwner
                vector3f physics:velocity = (0, 0, 0)
                quatd xformOp:orient = (0.7657909232740435, 0.6425748500364014, 0.016536300548371966, -0.01970722446105507)
                double3 xformOp:translate = (0.0385000041383734, 0.0034729675588133294, 0.019696150381128846)

                over "collisions"
                {
                    over "mesh_0"
                    {
                        over "sphere"
                        {
                            rel physics:simulationOwner
                        }
                    }
                }
            }

            over "wheel_passive_3"
            {
                vector3f physics:angularVelocity = (0, 0, 0)
                rel physics:simulationOwner
                vector3f physics:velocity = (0, 0, 0)
                quatd xformOp:orient = (0.4999339193344659, 0.8659109798621594, 0.01407794570866224, -0.008127896262806508)
                double3 xformOp:translate = (0.0384999875927694, -0.00999999546280464, 0.01732052788429142)

                over "collisions"
                {
                    over "mesh_0"
                    {
                        over "sphere"
                        {
                            rel physics:simulationOwner
                        }
                    }
                }
            }

            over "wheel_passive_4"
            {
                vector3f physics:angularVelocity = (0, 0, 0)
                rel physics:simulationOwner
                vector3f physics:velocity = (0, 0, 0)
                quatd xformOp:orient = (0.17364817917126002, 0.9848074091624851, -0.0008101368207483979, 0.00014285486065051812)
                double3 xformOp:translate = (0.0384999902800196, -0.018793853466363135, 0.006840401698912174)

                over "collisions"
                {
                    over "mesh_0"
                    {
                        over "sphere"
                        {
                            rel physics:simulationOwner
                        }
                    }
                }
            }

            over "wheel_passive_5"
            {
                vector3f physics:angularVelocity = (0, 0, 0)
                rel physics:simulationOwner
                vector3f physics:velocity = (0, 0, 0)
                quatd xformOp:orient = (-0.13123074352237837, 0.7442469274456718, 0.6449362988312536, 0.11371971417518036)
                double3 xformOp:translate = (0.038500010869217394, -0.018793846318758953, -0.006840414058539052)

                over "collisions"
                {
                    over "mesh_0"
                    {
                        over "sphere"
                        {
                            rel physics:simulationOwner
                        }
                    }
                }
            }

            over "wheel_passive_6"
            {
                vector3f physics:angularVelocity = (0, 0, 0)
                rel physics:simulationOwner
                vector3f physics:velocity = (0, 0, 0)
                quatd xformOp:orient = (-0.4999954418312534, 0.86601746692872, 0.0037052546669782828, 0.0021392078408278645)
                double3 xformOp:translate = (0.038500005724356634, -0.00999999428733657, -0.017320496496055576)

                over "collisions"
                {
                    over "mesh_0"
                    {
                        over "sphere"
                        {
                            rel physics:simulationOwner
                        }
                    }
                }
            }

            over "wheel_passive_7"
            {
                vector3f physics:angularVelocity = (0, 0, 0)
                rel physics:simulationOwner
                vector3f physics:velocity = (0, 0, 0)
                quatd xformOp:orient = (0.7660443127649132, -0.6427875136017621, 0.00036545184494181913, 0.0004355262855091882)
                double3 xformOp:translate = (0.038500011616534546, 0.0034729594233202862, -0.019696164306121616)

                over "collisions"
                {
                    over "mesh_0"
                    {
                        over "sphere"
                        {
                            rel physics:simulationOwner
                        }
                    }
                }
            }

            over "wheel_passive_8"
            {
                vector3f physics:angularVelocity = (0, 0, 0)
                rel physics:simulationOwner
                vector3f physics:velocity = (0, 0, 0)
                quatd xformOp:orient = (0.8340889044488603, -0.3035836667126961, -0.15752716878588588, -0.43280231962742255)
                double3 xformOp:translate = (0.0384999990415244, 0.01532088910127236, -0.012855752880440524)

                over "collisions"
                {
                    over "mesh_0"
                    {
                        over "sphere"
                        {
                            rel physics:simulationOwner
                        }
                    }
                }
            }

            over "joints"
            {
                over "wheel_passive_0_joint"
                {
                    float physics:lowerLimit = -inf
                    float physics:upperLimit = inf
                    float state:angular:physics:position = -1.1122963
                    float state:angular:physics:velocity = 0
                }

                over "wheel_passive_1_joint"
                {
                    float physics:lowerLimit = -inf
                    float physics:upperLimit = inf
                    float state:angular:physics:position = -2.6544697
                    float state:angular:physics:velocity = 0
                }

                over "wheel_passive_2_joint"
                {
                    float physics:lowerLimit = -inf
                    float physics:upperLimit = inf
                    float state:angular:physics:position = -2.9483192
                    float state:angular:physics:velocity = 0
                }

                over "wheel_passive_3_joint"
                {
                    float physics:lowerLimit = -inf
                    float physics:upperLimit = inf
                    float state:angular:physics:position = -1.8628714
                    float state:angular:physics:velocity = 0
                }

                over "wheel_passive_4_joint"
                {
                    float physics:lowerLimit = -inf
                    float physics:upperLimit = inf
                    float state:angular:physics:position = 0.09427725
                    float state:angular:physics:velocity = 0
                }

                over "wheel_passive_5_joint"
                {
                    float physics:lowerLimit = -inf
                    float physics:upperLimit = inf
                    float state:angular:physics:position = -81.82194
                    float state:angular:physics:velocity = 0
                }

                over "wheel_passive_6_joint"
                {
                    float physics:lowerLimit = -inf
                    float physics:upperLimit = inf
                    float state:angular:physics:position = -0.4902717
                    float state:angular:physics:velocity = 0
                }

                over "wheel_passive_7_joint"
                {
                    float physics:lowerLimit = -inf
                    float physics:upperLimit = inf
                    float state:angular:physics:position = 0.06514716
                    float state:angular:physics:velocity = 0
                }

                over "wheel_passive_8_joint"
                {
                    float state:angular:physics:position = -54.848915
                    float state:angular:physics:velocity = 0
                }
            }
        }
    }

    over "wheel_2"
    {
        string isaac:nameOverride (
            displayName = "Name Override"
        )
        vector3f physics:angularVelocity = (0, 0, 0)
        rel physics:simulationOwner
        vector3f physics:velocity = (0, 0, 0)
        quatd xformOp:orient = (0.8531271623852579, 0.07466734096236834, -0.04501857545563959, -0.5143657850771494)
        double3 xformOp:translate = (0.1425371915102005, -0.29933983087539673, -0.24430736899375916)

        over "omnia_150"
        {
            over "base_link"
            {
                vector3f physics:angularVelocity = (0, 0, 0)
                rel physics:simulationOwner
                vector3f physics:velocity = (0, 0, 0)
                quatd xformOp:orient = (0.9999999999999999, 7.311688122135963e-9, 2.2198097056073837e-9, -1.279282090082318e-8)
                double3 xformOp:translate = (5.551115123125783e-17, 1.3877787807814457e-17, 0)
            }

            over "wheel_passive_0"
            {
                vector3f physics:angularVelocity = (0, 0, 0)
                rel physics:simulationOwner
                vector3f physics:velocity = (0, 0, 0)
                quatd xformOp:orient = (0.9999883310165633, -1.2559177272481307e-9, -4.142234134878228e-9, 0.004830924415501566)
                double3 xformOp:translate = (0.03849999976473628, 0.01999998802658342, 8.489198843886214e-9)

                over "collisions"
                {
                    over "mesh_0"
                    {
                        over "sphere"
                        {
                            rel physics:simulationOwner
                        }
                    }
                }
            }

            over "wheel_passive_1"
            {
                vector3f physics:angularVelocity = (0, 0, 0)
                rel physics:simulationOwner
                vector3f physics:velocity = (0, 0, 0)
                quatd xformOp:orient = (0.9396786906784663, 0.3420150763062412, 0.0018622487022021041, -0.005116433700381103)
                double3 xformOp:translate = (0.03849999465227588, 0.015320887345497754, 0.012855753453391072)

                over "collisions"
                {
                    over "mesh_0"
                    {
                        over "sphere"
                        {
                            rel physics:simulationOwner
                        }
                    }
                }
            }

            over "wheel_passive_2"
            {
                vector3f physics:angularVelocity = (0, 0, 0)
                rel physics:simulationOwner
                vector3f physics:velocity = (0, 0, 0)
                quatd xformOp:orient = (0.7660325870929777, 0.6427774605758594, 0.003591092946432794, -0.00427968909377147)
                double3 xformOp:translate = (0.03849999255972114, 0.0034729648592717946, 0.01969614668477998)

                over "collisions"
                {
                    over "mesh_0"
                    {
                        over "sphere"
                        {
                            rel physics:simulationOwner
                        }
                    }
                }
            }

            over "wheel_passive_3"
            {
                vector3f physics:angularVelocity = (0, 0, 0)
                rel physics:simulationOwner
                vector3f physics:velocity = (0, 0, 0)
                quatd xformOp:orient = (0.49999755105298355, 0.8660212314947646, 0.0026938227743954868, -0.0015552685204446015)
                double3 xformOp:translate = (0.038499999106879346, -0.01000001239190379, 0.01732051816621208)

                over "collisions"
                {
                    over "mesh_0"
                    {
                        over "sphere"
                        {
                            rel physics:simulationOwner
                        }
                    }
                }
            }

            over "wheel_passive_4"
            {
                vector3f physics:angularVelocity = (0, 0, 0)
                rel physics:simulationOwner
                vector3f physics:velocity = (0, 0, 0)
                quatd xformOp:orient = (0.17364816818940187, 0.9848074133359213, -0.0008074931487453683, 0.00014240046364460613)
                double3 xformOp:translate = (0.03849999678071908, -0.0187938675598949, 0.006840402201605533)

                over "collisions"
                {
                    over "mesh_0"
                    {
                        over "sphere"
                        {
                            rel physics:simulationOwner
                        }
                    }
                }
            }

            over "wheel_passive_5"
            {
                vector3f physics:angularVelocity = (0, 0, 0)
                rel physics:simulationOwner
                vector3f physics:velocity = (0, 0, 0)
                quatd xformOp:orient = (0.06704634956875163, -0.38023778413827497, 0.9084412450924335, 0.16018276666991538)
                double3 xformOp:translate = (0.03849998138428451, -0.018793846947863235, -0.006840396554188388)

                over "collisions"
                {
                    over "mesh_0"
                    {
                        over "sphere"
                        {
                            rel physics:simulationOwner
                        }
                    }
                }
            }

            over "wheel_passive_6"
            {
                vector3f physics:angularVelocity = (0, 0, 0)
                rel physics:simulationOwner
                vector3f physics:velocity = (0, 0, 0)
                quatd xformOp:orient = (-0.499999624405001, 0.8660246544972746, 0.0011203055508955569, 0.0006467713712081189)
                double3 xformOp:translate = (0.038499976435860395, -0.009999995844538812, -0.017320489555988416)

                over "collisions"
                {
                    over "mesh_0"
                    {
                        over "sphere"
                        {
                            rel physics:simulationOwner
                        }
                    }
                }
            }

            over "wheel_passive_7"
            {
                vector3f physics:angularVelocity = (0, 0, 0)
                rel physics:simulationOwner
                vector3f physics:velocity = (0, 0, 0)
                quatd xformOp:orient = (0.7660414952117611, -0.6427850212979439, 0.0018002475854838474, 0.0021454876746748583)
                double3 xformOp:translate = (0.03849999083036332, 0.00347296780513201, -0.01969615019399157)

                over "collisions"
                {
                    over "mesh_0"
                    {
                        over "sphere"
                        {
                            rel physics:simulationOwner
                        }
                    }
                }
            }

            over "wheel_passive_8"
            {
                vector3f physics:angularVelocity = (0, 0, 0)
                rel physics:simulationOwner
                vector3f physics:velocity = (0, 0, 0)
                quatd xformOp:orient = (0.23988471260761535, -0.08731075877563693, 0.3306880682568668, 0.9085579549878623)
                double3 xformOp:translate = (0.038499988919217576, 0.015320896357270332, -0.012855749375442982)

                over "collisions"
                {
                    over "mesh_0"
                    {
                        over "sphere"
                        {
                            rel physics:simulationOwner
                        }
                    }
                }
            }

            over "joints"
            {
                over "wheel_passive_0_joint"
                {
                    float physics:lowerLimit = -inf
                    float physics:upperLimit = inf
                    float state:angular:physics:position = 0.5535855
                    float state:angular:physics:velocity = 0
                }

                over "wheel_passive_1_joint"
                {
                    float physics:lowerLimit = -inf
                    float physics:upperLimit = inf
                    float state:angular:physics:position = -0.6239282
                    float state:angular:physics:velocity = 0
                }

                over "wheel_passive_2_joint"
                {
                    float physics:lowerLimit = -inf
                    float physics:upperLimit = inf
                    float state:angular:physics:position = -0.64019364
                    float state:angular:physics:velocity = 0
                }

                over "wheel_passive_3_joint"
                {
                    float physics:lowerLimit = -inf
                    float physics:upperLimit = inf
                    float state:angular:physics:position = -0.3564466
                    float state:angular:physics:velocity = 0
                }

                over "wheel_passive_4_joint"
                {
                    bool[] isaac:actuator (
                        displayName = "Actuator"
                    )
                    string isaac:NameOverride (
                        displayName = "Joint Name Override"
                    )
                    token[] isaac:physics:DofOffsetOpOrder (
                        displayName = "Dof Offset Op Order"
                    )
                    float physics:lowerLimit = -inf
                    float physics:upperLimit = inf
                    float state:angular:physics:position = 0.093981095
                    float state:angular:physics:velocity = 0
                }

                over "wheel_passive_5_joint"
                {
                    float physics:lowerLimit = -inf
                    float physics:upperLimit = inf
                    float state:angular:physics:position = 134.57549
                    float state:angular:physics:velocity = 0
                }

                over "wheel_passive_6_joint"
                {
                    float physics:lowerLimit = -inf
                    float physics:upperLimit = inf
                    float state:angular:physics:position = -0.14823475
                    float state:angular:physics:velocity = 0
                }

                over "wheel_passive_7_joint"
                {
                    float physics:lowerLimit = -inf
                    float physics:upperLimit = inf
                    float state:angular:physics:position = 0.3209245
                    float state:angular:physics:velocity = 0
                }

                over "wheel_passive_8_joint"
                {
                    float physics:lowerLimit = -inf
                    float physics:upperLimit = inf
                    float state:angular:physics:position = 150.41966
                    float state:angular:physics:velocity = 0
                }
            }
        }
    }

    over "wheel_1"
    {
        string isaac:nameOverride (
            displayName = "Name Override"
        )
        vector3f physics:angularVelocity = (0, 0, 0)
        rel physics:simulationOwner
        vector3f physics:velocity = (0, 0, 0)
        quatd xformOp:orient = (0.8720155100125591, 0.07632960091291065, 0.0421594626204733, 0.4816485461761151)
        double3 xformOp:translate = (0.1647145003080368, 0.28514936566352844, -0.24430721998214722)

        over "omnia_150"
        {
            over "base_link"
            {
                vector3f physics:angularVelocity = (0, 0, 0)
                rel physics:simulationOwner
                vector3f physics:velocity = (0, 0, 0)
                quatd xformOp:orient = (0.9999999999999999, 2.32369815586765e-9, 1.2834583728191376e-9, 1.4662802133654025e-8)
                double3 xformOp:translate = (-3.3160546197841256e-8, -3.2064304197887417e-9, 5.656885515570309e-10)
            }

            over "wheel_passive_0"
            {
                vector3f physics:angularVelocity = (0, 0, 0)
                rel physics:simulationOwner
                vector3f physics:velocity = (0, 0, 0)
                quatd xformOp:orient = (0.9983161768617306, 5.934013275079545e-9, -1.2642501223714356e-8, 0.05800699109743311)
                double3 xformOp:translate = (0.03849999390008502, 0.020000006858321075, -1.0240506026493179e-8)

                over "collisions"
                {
                    over "mesh_0"
                    {
                        over "sphere"
                        {
                            rel physics:simulationOwner
                        }
                    }
                }
            }

            over "wheel_passive_1"
            {
                vector3f physics:angularVelocity = (0, 0, 0)
                rel physics:simulationOwner
                vector3f physics:velocity = (0, 0, 0)
                quatd xformOp:orient = (0.9366112563482808, 0.3408986634735356, -0.02767498937362611, 0.07603650890737854)
                double3 xformOp:translate = (0.03849997043583586, 0.015320889224674582, 0.012855756169918797)

                over "collisions"
                {
                    over "mesh_0"
                    {
                        over "sphere"
                        {
                            rel physics:simulationOwner
                        }
                    }
                }
            }

            over "wheel_passive_2"
            {
                vector3f physics:angularVelocity = (0, 0, 0)
                rel physics:simulationOwner
                vector3f physics:velocity = (0, 0, 0)
                quatd xformOp:orient = (0.7659904861551217, 0.6427421750880986, -0.0076346313720194224, 0.009098565088726931)
                double3 xformOp:translate = (0.03849997962751478, 0.0034729734200744586, 0.01969613801757028)

                over "collisions"
                {
                    over "mesh_0"
                    {
                        over "sphere"
                        {
                            rel physics:simulationOwner
                        }
                    }
                }
            }

            over "wheel_passive_3"
            {
                vector3f physics:angularVelocity = (0, 0, 0)
                rel physics:simulationOwner
                vector3f physics:velocity = (0, 0, 0)
                quatd xformOp:orient = (0.4953331670615861, 0.8579422742234828, -0.11804691514389426, 0.06815448286053909)
                double3 xformOp:translate = (0.0384999786430984, -0.009999994975776645, 0.017320497717656563)

                over "collisions"
                {
                    over "mesh_0"
                    {
                        over "sphere"
                        {
                            rel physics:simulationOwner
                        }
                    }
                }
            }

            over "wheel_passive_4"
            {
                vector3f physics:angularVelocity = (0, 0, 0)
                rel physics:simulationOwner
                vector3f physics:velocity = (0, 0, 0)
                quatd xformOp:orient = (0.1730851900934486, 0.9816146682915768, -0.07923976203327907, 0.013972117879600964)
                double3 xformOp:translate = (0.038499985378712076, -0.018793849149532034, 0.006840399996505958)

                over "collisions"
                {
                    over "mesh_0"
                    {
                        over "sphere"
                        {
                            rel physics:simulationOwner
                        }
                    }
                }
            }

            over "wheel_passive_5"
            {
                vector3f physics:angularVelocity = (0, 0, 0)
                rel physics:simulationOwner
                vector3f physics:velocity = (0, 0, 0)
                quatd xformOp:orient = (-0.17340490030035874, 0.9834277372998186, 0.05211695776329422, 0.009189601442978442)
                double3 xformOp:translate = (0.038499974914974366, -0.018793859326441842, -0.006840411529940027)

                over "collisions"
                {
                    over "mesh_0"
                    {
                        over "sphere"
                        {
                            rel physics:simulationOwner
                        }
                    }
                }
            }

            over "wheel_passive_6"
            {
                vector3f physics:angularVelocity = (0, 0, 0)
                rel physics:simulationOwner
                vector3f physics:velocity = (0, 0, 0)
                quatd xformOp:orient = (-0.4984903254059451, 0.8634104379918676, -0.06724845787106612, -0.03882597014022658)
                double3 xformOp:translate = (0.03849998039680208, -0.009999987633170615, -0.017320510047180215)

                over "collisions"
                {
                    over "mesh_0"
                    {
                        over "sphere"
                        {
                            rel physics:simulationOwner
                        }
                    }
                }
            }

            over "wheel_passive_7"
            {
                vector3f physics:angularVelocity = (0, 0, 0)
                rel physics:simulationOwner
                vector3f physics:velocity = (0, 0, 0)
                quatd xformOp:orient = (0.7622259367157327, -0.6395833856843733, 0.0641008092114184, 0.07639241070145245)
                double3 xformOp:translate = (0.03849997983388842, 0.0034729613030156786, -0.019696144439059815)

                over "collisions"
                {
                    over "mesh_0"
                    {
                        over "sphere"
                        {
                            rel physics:simulationOwner
                        }
                    }
                }
            }

            over "wheel_passive_8"
            {
                vector3f physics:angularVelocity = (0, 0, 0)
                rel physics:simulationOwner
                vector3f physics:velocity = (0, 0, 0)
                quatd xformOp:orient = (-0.3078518652431834, 0.11204902372804171, 0.3231452468020502, 0.8878341032068591)
                double3 xformOp:translate = (0.03849997317143872, 0.015320894528090545, -0.012855746300673765)

                over "collisions"
                {
                    over "mesh_0"
                    {
                        over "sphere"
                        {
                            rel physics:simulationOwner
                        }
                    }
                }
            }

            over "joints"
            {
                over "wheel_passive_0_joint"
                {
                    float physics:lowerLimit = -inf
                    float physics:upperLimit = inf
                    float state:angular:physics:position = 6.650864
                    float state:angular:physics:velocity = 0
                }

                over "wheel_passive_1_joint"
                {
                    float physics:lowerLimit = -inf
                    float physics:upperLimit = inf
                    float state:angular:physics:position = 9.282475
                    float state:angular:physics:velocity = 0
                }

                over "wheel_passive_2_joint"
                {
                    float physics:lowerLimit = -inf
                    float physics:upperLimit = inf
                    float state:angular:physics:position = 1.361085
                    float state:angular:physics:velocity = 0
                }

                over "wheel_passive_3_joint"
                {
                    float physics:lowerLimit = -inf
                    float physics:upperLimit = inf
                    float state:angular:physics:position = 15.66864
                    float state:angular:physics:velocity = 0
                }

                over "wheel_passive_4_joint"
                {
                    float physics:lowerLimit = -inf
                    float physics:upperLimit = inf
                    float state:angular:physics:position = 9.23027
                    float state:angular:physics:velocity = 0
                }

                over "wheel_passive_5_joint"
                {
                    float physics:lowerLimit = -inf
                    float physics:upperLimit = inf
                    float state:angular:physics:position = -6.067131
                    float state:angular:physics:velocity = 0
                }

                over "wheel_passive_6_joint"
                {
                    float physics:lowerLimit = -inf
                    float physics:upperLimit = inf
                    float state:angular:physics:position = 8.907229
                    float state:angular:physics:velocity = 0
                }

                over "wheel_passive_7_joint"
                {
                    float physics:lowerLimit = -inf
                    float physics:upperLimit = inf
                    float state:angular:physics:position = 11.4464855
                    float state:angular:physics:velocity = 0
                }

                over "wheel_passive_8_joint"
                {
                    float physics:lowerLimit = -inf
                    float physics:upperLimit = inf
                    float state:angular:physics:position = -141.75256
                    float state:angular:physics:velocity = 0
                }
            }
        }
    }

    over "base_link"
    {
        vector3f physics:angularVelocity = (0, 0, 0)
        rel physics:simulationOwner
        vector3f physics:velocity = (0, 0, 0)
        quatd xformOp:orient = (0.9998202182802794, 4.461617006298594e-8, -5.808323939918636e-7, -0.018961305799838766)
        double3 xformOp:translate = (0.00012606196105480194, -0.0012759107630699873, -0.15130750834941864)
    }

    over "lift_link"
    {
        string isaac:nameOverride (
            displayName = "Name Override"
        )
        vector3f physics:angularVelocity = (0, 0, 0)
        rel physics:simulationOwner
        vector3f physics:velocity = (0, 0, 0)
        quatd xformOp:orient = (0.9998202182235023, 4.644971406622056e-8, -6.232003303884592e-7, -0.018961308792319217)
        double3 xformOp:translate = (0.04022878035902977, -0.0020363088697195053, 0.07030041515827179)

        over "AC_One_Base"
        {
            over "base_link"
            {
                vector3f physics:angularVelocity = (0, 0, 0)
                rel physics:simulationOwner
                vector3f physics:velocity = (0, 0, 0)
                quatd xformOp:orient = (0.9999999999999998, -3.930679847870581e-10, 2.072621568457902e-8, 3.789286318782046e-9)
                double3 xformOp:translate = (2.227467457704968e-8, 6.68780322787832e-10, -1.156539509994392e-8)
            }
        }
    }

    over "joints"
    {
        over "lift_joint"
        {
            float drive:linear:physics:damping = 20
            float drive:linear:physics:stiffness = 200
            float drive:linear:physics:targetPosition = 0
            bool[] isaac:actuator (
                displayName = "Actuator"
            )
            string isaac:NameOverride (
                displayName = "Joint Name Override"
            )
            token[] isaac:physics:DofOffsetOpOrder (
                displayName = "Dof Offset Op Order"
            )
            float physics:lowerLimit = 0
            float physics:upperLimit = 0.46
            float state:linear:physics:position = 5.0802107e-10
            float state:linear:physics:velocity = 0
        }

        over "wheel1_joint"
        {
            float drive:angular:physics:targetPosition = 63.5
            bool[] isaac:actuator (
                displayName = "Actuator"
            )
            string isaac:NameOverride (
                displayName = "Joint Name Override"
            )
            token[] isaac:physics:DofOffsetOpOrder (
                displayName = "Dof Offset Op Order"
            )
            float physics:lowerLimit = -inf
            float physics:upperLimit = inf
            float state:angular:physics:position = 10.005026
            float state:angular:physics:velocity = 0
        }

        over "wheel2_joint"
        {
            float drive:angular:physics:targetPosition = 2.2
            float physics:lowerLimit = -inf
            float physics:upperLimit = inf
            float state:angular:physics:position = 10.00374
            float state:angular:physics:velocity = 0
        }

        over "wheel3_joint"
        {
            float physics:lowerLimit = -inf
            float physics:upperLimit = inf
            float state:angular:physics:position = 9.993499
            float state:angular:physics:velocity = 0
        }
    }
    variantSet "Physics" = {
        "none" (
            prepend payload = @./payloads/Physics/none.usda@
        ) {

        }
        "physics" (
            prepend payload = @./payloads/Physics/physics.usda@
        ) {

        }
        "physx" (
            prepend payload = @./payloads/Physics/physx.usda@
        ) {

        }
    }
    variantSet "Sensor" = {
        "none" (
            prepend payload = @./payloads/Sensor/none.usda@
        ) {

        }
        "sensors" (
            prepend payload = @./payloads/Sensor/sensors.usda@
        ) {

        }
    }
    variantSet "Robot" = {
        "none" (
            prepend payload = @./payloads/Robot/none.usda@
        ) {

        }
        "robot" (
            prepend payload = @./payloads/Robot/robot.usda@
        ) {

        }
    }
    variantSet "Wheel1" = {
        "None" {

        }
        "base" (
            prepend payload = @payloads/Wheel1/base.usd@
        ) {
            prepend rel isaac:physics:robotJoints = </Omnichassis/wheel_1/omnia_150>
            prepend rel isaac:physics:robotLinks = </Omnichassis/wheel_1/omnia_150>

        }
    }
    variantSet "Wheel2" = {
        "None" {

        }
        "base" (
            prepend payload = @payloads/Wheel2/base.usd@
        ) {
            prepend rel isaac:physics:robotJoints = </Omnichassis/wheel_2/omnia_150>
            prepend rel isaac:physics:robotLinks = </Omnichassis/wheel_2/omnia_150>

        }
    }
    variantSet "Wheel3" = {
        "None" {

        }
        "base" (
            prepend payload = @payloads/Wheel3/base.usd@
        ) {
            prepend rel isaac:physics:robotJoints = </Omnichassis/wheel_3/omnia_150>
            prepend rel isaac:physics:robotLinks = </Omnichassis/wheel_3/omnia_150>

        }
    }
    variantSet "AC_One_Base" = {
        "None" {

        }
        "base" (
            prepend payload = @payloads/AC_One_Base/base.usd@
        ) {
            prepend rel isaac:physics:robotJoints = </Omnichassis/lift_link/AC_One_Base>
            prepend rel isaac:physics:robotLinks = </Omnichassis/lift_link/AC_One_Base>

        }
    }
}

def "Render" (
    hide_in_stage_window = true
    no_delete = true
)
{
    def "OmniverseKit"
    {
        def "HydraTextures" (
            hide_in_stage_window = true
            no_delete = true
        )
        {
            def RenderProduct "omni_kit_widget_viewport_ViewportTexture_0" (
                prepend apiSchemas = ["OmniRtxSettingsCommonAdvancedAPI_1", "OmniRtxSettingsRtAdvancedAPI_1", "OmniRtxSettingsPtAdvancedAPI_1", "OmniRtxPostColorGradingAPI_1", "OmniRtxPostChromaticAberrationAPI_1", "OmniRtxPostBloomPhysicalAPI_1", "OmniRtxPostMatteObjectAPI_1", "OmniRtxPostCompositingAPI_1", "OmniRtxPostDofAPI_1", "OmniRtxPostMotionBlurAPI_1", "OmniRtxPostTvNoiseAPI_1", "OmniRtxPostTonemapIrayReinhardAPI_1", "OmniRtxPostDebugSettingsAPI_1", "OmniRtxDebugSettingsAPI_1"]
                hide_in_stage_window = true
                no_delete = true
            )
            {
                rel camera = </OmniverseKit_Persp>
                token omni:rtx:ambientOcclusion:denoiserMode = "none"
                token omni:rtx:background:source:texture:textureMode = "repeatMirrored"
                token omni:rtx:background:source:type = "domeLight"
                bool omni:rtx:debug:view:pixelDebug:enableFixedTextPos = 1
                token omni:rtx:directLighting:sampledLighting:denoisingTechnique = "None"
                bool omni:rtx:dlss:frameGeneration = 0
                float3 omni:rtx:domeLight:rotationAxis = (0, 0, 1)
                bool omni:rtx:indirectDiffuse:denoiser:enabled = 0
                string omni:rtx:material:db:rtSensorNameToIdMap = "DefaultMaterial:0;AsphaltStandardMaterial:1;AsphaltWeatheredMaterial:2;VegetationGrassMaterial:3;WaterStandardMaterial:4;GlassStandardMaterial:5;FiberGlassMaterial:6;MetalAlloyMaterial:7;MetalAluminumMaterial:8;MetalAluminumOxidizedMaterial:9;PlasticStandardMaterial:10;RetroMarkingsMaterial:11;RetroSignMaterial:12;RubberStandardMaterial:13;SoilClayMaterial:14;ConcreteRoughMaterial:15;ConcreteSmoothMaterial:16;OakTreeBarkMaterial:17;FabricStandardMaterial:18;PlexiGlassStandardMaterial:19;MetalSilverMaterial:20"
                bool omni:rtx:material:db:syncLoads = 1
                token omni:rtx:post:dlss:execMode = "performance"
                bool omni:rtx:post:registeredCompositing:invertColorCorrection = 1
                bool omni:rtx:post:registeredCompositing:invertToneMap = 1
                bool omni:rtx:pt:adaptiveSampling:filterError = 0
                uint omni:rtx:pt:adaptiveSampling:fixedSppIterations = 2
                bool omni:rtx:pt:lightcache:cached:dontResolveConflicts = 1
                uint omni:rtx:pt:maxSamplesPerLaunch = 2073600
                uint omni:rtx:pt:mgpu:maxPixelsPerRegionExponent = 12
                bool omni:rtx:reflections:denoiser:enabled = 0
                token omni:rtx:rendermode = "RealTimePathTracing"
                color3f omni:rtx:rt:ambientLight:color = (0.1, 0.1, 0.1)
                bool omni:rtx:rt:demoire = 0
                bool omni:rtx:rt:ecoMode:enabled
                bool omni:rtx:rt:lightcache:spatialCache:dontResolveConflicts = 1
                int omni:rtx:rt:sss:samples = 1
                uint omni:rtx:rtpt:maxVolumeBounces = 15
                float omni:rtx:rtpt:modulatingRoughnessThreshold = 0.08
                bool omni:rtx:scene:hydra:materialSyncLoads = 1
                bool omni:rtx:scene:hydra:mdlMaterialWarmup = 1
                uint omni:rtx:viewTile:limit = 4294967295
                rel orderedVars = </Render/Vars/LdrColor>
                custom bool overrideClipRange = 0
                uniform int2 resolution = (1280, 720)
            }
        }
    }

    def RenderSettings "OmniverseGlobalRenderSettings" (
        prepend apiSchemas = ["OmniRtxSettingsGlobalRtAdvancedAPI_1", "OmniRtxSettingsGlobalPtAdvancedAPI_1"]
        no_delete = true
    )
    {
        rel products = </Render/OmniverseKit/HydraTextures/omni_kit_widget_viewport_ViewportTexture_0>
    }

    def "Vars"
    {
        def RenderVar "LdrColor" (
            hide_in_stage_window = true
            no_delete = true
        )
        {
            uniform string sourceName = "LdrColor"
        }
    }
}

over "OmniverseKit_Persp" (
    apiSchemas = ["OmniRtxCameraAutoExposureAPI_1", "OmniRtxCameraExposureAPI_1"]
    customData = {
        dictionary omni = {
            dictionary kit = {
                bool hide_in_stage_window = 1
                bool no_delete = 1
            }
        }
    }
    hide_in_stage_window = true
    kind = "component"
    no_delete = true
)
{
    float2 clippingRange = (0.01, 10000000)
    float exposure:fStop = 5
    float exposure:responsivity = 1.1026709
    float exposure:time = 0.02
    float focalLength = 18.147562
    float focusDistance = 400
    custom uniform vector3d omni:kit:centerOfInterest = (-2.050588325496736e-17, -1.5291526308820247e-16, -2.33072059978426)
    float3 xformOp:rotateXYZ = (62.13403, -5.5659707e-14, 155.47946)
    float3 xformOp:scale = (1, 1, 1)
    double3 xformOp:translate = (0.8274613857475341, 1.8121504251694591, 0.9937177821434727)
    uniform token[] xformOpOrder = ["xformOp:translate", "xformOp:rotateXYZ", "xformOp:scale"]
}

over "OmniverseKit_Front" (
    customData = {
        dictionary omni = {
            dictionary kit = {
                bool hide_in_stage_window = 1
                bool no_delete = 1
            }
        }
    }
    hide_in_stage_window = true
    kind = "component"
    no_delete = true
)
{
    float2 clippingRange = (1, 10000000)
    float horizontalAperture = 50
    custom uniform vector3d omni:kit:centerOfInterest = (0, 0, -5)
    token projection = "orthographic"
    float verticalAperture = 50
    float3 xformOp:rotateXYZ = (90, -1.2722219e-14, 90)
    float3 xformOp:scale = (1, 1, 1)
    double3 xformOp:translate = (5, 0, 0)
    uniform token[] xformOpOrder = ["xformOp:translate", "xformOp:rotateXYZ", "xformOp:scale"]
}

over "OmniverseKit_Right" (
    customData = {
        dictionary omni = {
            dictionary kit = {
                bool hide_in_stage_window = 1
                bool no_delete = 1
            }
        }
    }
    hide_in_stage_window = true
    kind = "component"
    no_delete = true
)
{
    float2 clippingRange = (1, 10000000)
    float horizontalAperture = 50
    custom uniform vector3d omni:kit:centerOfInterest = (0, 0, -5)
    token projection = "orthographic"
    float verticalAperture = 50
    float3 xformOp:rotateXYZ = (90, -1.41245e-30, 1.2722219e-14)
    float3 xformOp:scale = (1, 1, 1)
    double3 xformOp:translate = (0, -5, 0)
    uniform token[] xformOpOrder = ["xformOp:translate", "xformOp:rotateXYZ", "xformOp:scale"]
}

over "OmniverseKit_Top" (
    customData = {
        dictionary omni = {
            dictionary kit = {
                bool hide_in_stage_window = 1
                bool no_delete = 1
            }
        }
    }
    hide_in_stage_window = true
    kind = "component"
    no_delete = true
)
{
    float2 clippingRange = (1, 10000000)
    float horizontalAperture = 50
    custom uniform vector3d omni:kit:centerOfInterest = (0, 0, -5)
    token projection = "orthographic"
    float verticalAperture = 50
    float3 xformOp:rotateXYZ = (-1.2722219e-14, -7.016709e-15, -90)
    float3 xformOp:scale = (1, 1, 1)
    double3 xformOp:translate = (0, 0, 5)
    uniform token[] xformOpOrder = ["xformOp:translate", "xformOp:rotateXYZ", "xformOp:scale"]
}

def PhysicsScene "PhysicsScene" (
    prepend apiSchemas = ["NewtonSceneAPI", "PhysxSceneAPI"]
)
{
}

