#usda 1.0
(
    defaultPrim = "root"
    doc = """Heavy_Right fixed tip mesh (bxz1020001). Xform matches flange/right_left/bxz1020001."""
    metersPerUnit = 1
    upAxis = "Z"
)

def Xform "root"
{
    def Xform "mesh" (
        instanceable = true
        prepend references = @./instances.usda@</Instances/bxz1020001>
    )
    {
        double3 xformOp:translate = (0, -5.820766091e-11, 1.455191523e-11)
        quatd xformOp:orient = (1.19429245e-7, 0, -0.7071067341, 0.7071068283)
        double3 xformOp:scale = (0.00100000028, 0.001000000164, 0.001000000164)
        uniform token[] xformOpOrder = ["xformOp:translate", "xformOp:orient", "xformOp:scale"]
    }
}
