#usda 1.0
(
    customLayerData = {
        dictionary cameraSettings = {
            dictionary Front = {
                double3 position = (5, 0, 0)
                double radius = 5
            }
            dictionary Perspective = {
                double3 position = (1.5202441255193149, 1.4542654116348321, 2.1258699087079043)
                double3 target = (-0.1798823665737923, -0.24586108045827437, 0.4257434571938077)
            }
            dictionary Right = {
                double3 position = (0, -5, 0)
                double radius = 5
            }
            dictionary Top = {
                double3 position = (0, 0, 5)
                double radius = 5
            }
            string boundCamera = "/OmniverseKit_Persp"
        }
        dictionary omni_layer = {
            string authoring_layer = "./CR5.usd"
        }
        dictionary renderSettings = {
        }
    }
    defaultPrim = "CR5"
    metersPerUnit = 1
    upAxis = "Z"
)

def Xform "CR5"
{
}

