#usda 1.0
(
    customLayerData = {
        dictionary cameraSettings = {
            dictionary Front = {
                double3 position = (5, 0, 0)
                double radius = 5
            }
            dictionary Perspective = {
                double3 position = (0.23737665316431572, 0.3061981396261718, 0.4775422300753622)
                double3 target = (-0.10299568940766135, -0.03417420294580514, 0.13716989562747056)
            }
            dictionary Right = {
                double3 position = (0, -5, 0)
                double radius = 5
            }
            dictionary Top = {
                double3 position = (0, 0, 5)
                double radius = 5
            }
            string boundCamera = "/OmniverseKit_Persp"
        }
        dictionary metricsAssembler = {
            dictionary "/Galaxea_A1Y/d405" = {
            }
            int version = 1
        }
        dictionary omni_layer = {
            string authoring_layer = "./Galaxea_A1Y.usd"
        }
        dictionary renderSettings = {
        }
    }
    defaultPrim = "Galaxea_A1Y"
    metersPerUnit = 1
    upAxis = "Z"
)

def "Galaxea_A1Y"
{
}

