#usda 1.0
(
    customLayerData = {
        dictionary cameraSettings = {
            dictionary Front = {
                double3 position = (5, 0, 0)
                double radius = 5
            }
            dictionary Perspective = {
                double3 position = (0.3274176994328161, 0.1736013205702011, 0.7700787443648259)
                double3 target = (0.1200839679779189, 0.0010686569465702123, -0.04503041415236897)
            }
            dictionary Right = {
                double3 position = (0, -5, 0)
                double radius = 5
            }
            dictionary Top = {
                double3 position = (0, 0, 5)
                double radius = 5
            }
            string boundCamera = "/OmniverseKit_Persp"
        }
        dictionary omni_layer = {
            string authoring_layer = "./Panthera_HT.usd"
        }
        dictionary renderSettings = {
        }
    }
    defaultPrim = "Panthera_HT"
    metersPerUnit = 1
    upAxis = "Z"
)

def Xform "Panthera_HT"
{
}

