#usda 1.0
(
    customLayerData = {
        dictionary cameraSettings = {
            dictionary Front = {
                double3 position = (5, 0, 0)
                double radius = 5
            }
            dictionary Perspective = {
                double3 position = (0.4865642594038685, 0.20038427098702452, 0.38149641677139784)
                double3 target = (-0.25498749010333743, -0.04441250382710424, 0.009124628441084581)
            }
            dictionary Right = {
                double3 position = (0, -5, 0)
                double radius = 5
            }
            dictionary Top = {
                double3 position = (0, 0, 5)
                double radius = 5
            }
            string boundCamera = "/OmniverseKit_Persp"
        }
        dictionary omni_layer = {
            string authoring_layer = "./ChangingTek_AG2F90.usd"
        }
        dictionary renderSettings = {
        }
    }
    defaultPrim = "ChangingTek_AG2F90"
    metersPerUnit = 1
    upAxis = "Z"
)

def "ChangingTek_AG2F90"
{
}

