#usda 1.0
(
    customLayerData = {
        dictionary cameraSettings = {
            dictionary Front = {
                double3 position = (5, 0, 0)
                double radius = 5
            }
            dictionary Perspective = {
                double3 position = (0.6771717805254425, 0.05570996849977984, 1.1920184155028208)
                double3 target = (-2.5731274226771697, -0.9064228788279927, 1.0126272174719575)
            }
            dictionary Right = {
                double3 position = (0, -5, 0)
                double radius = 5
            }
            dictionary Top = {
                double3 position = (0, 0, 5)
                double radius = 5
            }
            string boundCamera = "/OmniverseKit_Persp"
        }
        dictionary omni_layer = {
            string authoring_layer = "./Agibot_G1.usd"
            dictionary locked = {
            }
            dictionary muteness = {
            }
        }
        dictionary renderSettings = {
        }
    }
    defaultPrim = "Agibot_G1"
    doc = """Generated from Composed Stage of root layer /home/fiveages/libraries/FaSim-Isaac/robots/humanoid/Agibot/G1/G1.usda


Generated from Composed Stage of root layer /home/fiveages/libraries/FaSim-Isaac/robots/humanoid/Agibot/G1/payloads/base.usd
"""
    endTimeCode = 0
    metersPerUnit = 1
    startTimeCode = -1
    subLayers = [
        @./robot.usda@
    ]
    upAxis = "Z"
)

def Xform "Agibot_G1"
{
    quatd xformOp:orient = (1, 0, 0, 0)
    double3 xformOp:scale = (1, 1, 1)
    double3 xformOp:translate = (0, 0, 0)
    uniform token[] xformOpOrder = ["xformOp:translate", "xformOp:orient", "xformOp:scale"]

    def Xform "base_footprint"
    {
        quatd xformOp:orient = (1, 0, 0, 0)
        double3 xformOp:scale = (1, 1, 1)
        double3 xformOp:translate = (0, 0, 0)
        uniform token[] xformOpOrder = ["xformOp:translate", "xformOp:orient", "xformOp:scale"]

        def Xform "base_link"
        {
            quatd xformOp:orient = (1, 0, 0, 0)
            double3 xformOp:scale = (1, 1, 1)
            double3 xformOp:translate = (0, 0, 0.210999995470047)
            uniform token[] xformOpOrder = ["xformOp:translate", "xformOp:orient", "xformOp:scale"]

            def Xform "imu"
            {
                quatd xformOp:orient = (1, 0, 0, 0)
                double3 xformOp:scale = (1, 1, 1)
                double3 xformOp:translate = (0.01600000075995922, 0, 0.014499999582767487)
                uniform token[] xformOpOrder = ["xformOp:translate", "xformOp:orient", "xformOp:scale"]
            }

            def Xform "scan"
            {
                quatd xformOp:orient = (1, 0, 0, 0)
                double3 xformOp:scale = (1, 1, 1)
                double3 xformOp:translate = (0.23999999463558197, 0, 0.014499999582767487)
                uniform token[] xformOpOrder = ["xformOp:translate", "xformOp:orient", "xformOp:scale"]
            }
        }

        def Xform "visuals" (
            instanceable = false
        )
        {
            def Xform "base" (
                instanceable = true
                prepend references = @./instances.usda@</Instances/mesh>
            )
            {
                token visibility = "inherited"
            }
        }

        def Xform "collisions" (
            instanceable = false
        )
        {
            def Xform "mesh_0"
            {
                uniform token purpose = "guide"
                quatd xformOp:orient = (1, 0, 0, 0)
                double3 xformOp:scale = (0.29833984375, 0.3376392126083374, 1)
                double3 xformOp:translate = (-0.109130859375, 0, 0.8081874847412109)
                uniform token[] xformOpOrder = ["xformOp:translate", "xformOp:orient", "xformOp:scale"]

                def Cube "box" (
                    prepend apiSchemas = ["PhysicsCollisionAPI"]
                )
                {
                    float3[] extent = [(-0.14916992, -0.1688196, -0.5), (0.14916992, 0.1688196, 0.5)]
                    double size = 1
                }
            }
        }
    }

    def Xform "body_link1"
    {
        quatd xformOp:orient = (1, 0, 0, 0)
        double3 xformOp:scale = (1, 1, 1)
        double3 xformOp:translate = (0, 0, 0.6395000219345093)
        uniform token[] xformOpOrder = ["xformOp:translate", "xformOp:orient", "xformOp:scale"]

        def Xform "visuals" (
            instanceable = false
        )
        {
            def Xform "body_link1" (
                instanceable = true
                prepend references = @./instances.usda@</Instances/mesh_1>
            )
            {
                token visibility = "inherited"
            }
        }

        def Xform "collisions" (
            instanceable = false
        )
        {
            def Xform "mesh_0"
            {
                uniform token purpose = "guide"
                quatd xformOp:orient = (1, 0, 0, 0)
                double3 xformOp:scale = (0.16064453125, 0.05555534362792969, 0.1328125)
                double3 xformOp:translate = (0.102783203125, 0.10000000149011612, -0.013671875)
                uniform token[] xformOpOrder = ["xformOp:translate", "xformOp:orient", "xformOp:scale"]

                def Cube "box" (
                    prepend apiSchemas = ["PhysicsCollisionAPI"]
                )
                {
                    float3[] extent = [(-0.080322266, -0.027777672, -0.06640625), (0.080322266, 0.027777672, 0.06640625)]
                    double size = 1
                }
            }

            def Xform "mesh_1"
            {
                uniform token purpose = "guide"
                quatd xformOp:orient = (1, 0, 0, 0)
                double3 xformOp:scale = (0.16259765625, 0.04375648498535156, 0.16015625)
                double3 xformOp:translate = (0.101806640625, -0.10000000149011612, 0)
                uniform token[] xformOpOrder = ["xformOp:translate", "xformOp:orient", "xformOp:scale"]

                def Cube "box" (
                    prepend apiSchemas = ["PhysicsCollisionAPI"]
                )
                {
                    float3[] extent = [(-0.08129883, -0.021878242, -0.080078125), (0.08129883, 0.021878242, 0.080078125)]
                    double size = 1
                }
            }
        }
    }

    def Scope "joints"
    {
    }

    def Xform "body_link2"
    {
        quatd xformOp:orient = (0.7071067690849304, -0.7071067690849304, 0, 0)
        double3 xformOp:scale = (1, 1, 1)
        double3 xformOp:translate = (0.13099999725818634, 0, 0.6395000219345093)
        uniform token[] xformOpOrder = ["xformOp:translate", "xformOp:orient", "xformOp:scale"]

        def Xform "arm_base"
        {
            quatd xformOp:orient = (0.7071067690849304, 0.7071067690849304, 0, 0)
            double3 xformOp:scale = (1, 1, 1)
            double3 xformOp:translate = (0, -0.3050000071525574, 0)
            uniform token[] xformOpOrder = ["xformOp:translate", "xformOp:orient", "xformOp:scale"]

            def Xform "left_base_link"
            {
                quatd xformOp:orient = (0.7071067690849304, -0.7071067690849304, 0, 0)
                double3 xformOp:scale = (1, 1, 1)
                double3 xformOp:translate = (0, 0.02500000037252903, 0)
                uniform token[] xformOpOrder = ["xformOp:translate", "xformOp:orient", "xformOp:scale"]
            }

            def Xform "right_base_link"
            {
                quatd xformOp:orient = (-3.0908619663705394e-8, 3.0908619663705394e-8, -0.7071067690849304, 0.7071067690849304)
                double3 xformOp:scale = (1, 1, 1)
                double3 xformOp:translate = (0, -0.02500000037252903, 0)
                uniform token[] xformOpOrder = ["xformOp:translate", "xformOp:orient", "xformOp:scale"]
            }
        }

        def Xform "visuals" (
            instanceable = false
        )
        {
            def Xform "body_link2" (
                instanceable = true
                prepend references = @./instances.usda@</Instances/mesh_2>
            )
            {
                token visibility = "inherited"
                quatd xformOp:orient = (0.7071067691, 0, 0, -0.7071067933)
                double3 xformOp:scale = (1, 1, 1)
                double3 xformOp:translate = (0, 0, 0)
                uniform token[] xformOpOrder = ["xformOp:translate", "xformOp:orient", "xformOp:scale"]
            }

            def Xform "base_link" (
                instanceable = true
                prepend references = @./instances.usda@</Instances/mesh_3>
            )
            {
                token visibility = "inherited"
                quatd xformOp:orient = (1, 0, 0, 0)
                double3 xformOp:scale = (1, 1, 1)
                double3 xformOp:translate = (0, -0.3050000072, 0.02500000037)
                uniform token[] xformOpOrder = ["xformOp:translate", "xformOp:orient", "xformOp:scale"]
            }

            def Xform "base_link_0" (
                instanceable = true
                prepend references = @./instances.usda@</Instances/mesh_3>
            )
            {
                token visibility = "inherited"
                quatd xformOp:orient = (0, 0, 1, 0)
                double3 xformOp:scale = (1, 1, 1)
                double3 xformOp:translate = (0, -0.3050000072, -0.02500000037)
                uniform token[] xformOpOrder = ["xformOp:translate", "xformOp:orient", "xformOp:scale"]
            }
        }

        def Xform "collisions" (
            instanceable = false
        )
        {
            def Xform "mesh_0"
            {
                uniform token purpose = "guide"
                quatd xformOp:orient = (1, 0, 0, 0)
                double3 xformOp:scale = (1, 1, 1)
                double3 xformOp:translate = (0.0068359375, -0.00034356117248535156, 0)
                uniform token[] xformOpOrder = ["xformOp:translate", "xformOp:orient", "xformOp:scale"]

                def Cylinder "cylinder" (
                    prepend apiSchemas = ["PhysicsCollisionAPI"]
                )
                {
                    uniform token axis = "Z"
                    float3[] extent = [(-0.09662318, -0.09662318, -0.043485284), (0.09662318, 0.09662318, 0.043485284)]
                    double height = 0.08697056770324707
                    double radius = 0.09662318229675293
                }
            }

            def Xform "mesh_1"
            {
                uniform token purpose = "guide"
                quatd xformOp:orient = (1, 0, 0, 0)
                double3 xformOp:scale = (1, 1, 1)
                double3 xformOp:translate = (0.0068359375, -0.00034356117248535156, 0.043485283851623535)
                uniform token[] xformOpOrder = ["xformOp:translate", "xformOp:orient", "xformOp:scale"]

                def Sphere "sphere" (
                    prepend apiSchemas = ["PhysicsCollisionAPI"]
                )
                {
                    float3[] extent = [(-0.09662318, -0.09662318, -0.09662318), (0.09662318, 0.09662318, 0.09662318)]
                    double radius = 0.09662318229675293
                }
            }

            def Xform "mesh_2"
            {
                uniform token purpose = "guide"
                quatd xformOp:orient = (1, 0, 0, 0)
                double3 xformOp:scale = (1, 1, 1)
                double3 xformOp:translate = (0.0068359375, -0.00034356117248535156, -0.043485283851623535)
                uniform token[] xformOpOrder = ["xformOp:translate", "xformOp:orient", "xformOp:scale"]

                def Sphere "sphere" (
                    prepend apiSchemas = ["PhysicsCollisionAPI"]
                )
                {
                    float3[] extent = [(-0.09662318, -0.09662318, -0.09662318), (0.09662318, 0.09662318, 0.09662318)]
                    double radius = 0.09662318229675293
                }
            }

            def Xform "mesh_3"
            {
                uniform token purpose = "guide"
                quatd xformOp:orient = (0.7071055173873901, 0, 0, -0.7071080803871155)
                double3 xformOp:scale = (0.345703125, 0.181077241897583, 0.3125)
                double3 xformOp:translate = (0.00800000037997961, -0.24799999594688416, 0)
                uniform token[] xformOpOrder = ["xformOp:translate", "xformOp:orient", "xformOp:scale"]

                def Cube "box" (
                    prepend apiSchemas = ["PhysicsCollisionAPI"]
                )
                {
                    float3[] extent = [(-0.17285156, -0.09053862, -0.15625), (0.17285156, 0.09053862, 0.15625)]
                    double size = 1
                }
            }
        }
    }

    def Xform "head_link1"
    {
        quatd xformOp:orient = (0.9999999403953552, 0, 0, 0)
        double3 xformOp:scale = (1, 1, 1)
        double3 xformOp:translate = (0.13099999725818634, 2.6285649212809403e-8, 1.0805000066757202)
        uniform token[] xformOpOrder = ["xformOp:translate", "xformOp:orient", "xformOp:scale"]

        def Xform "visuals" (
            instanceable = false
        )
        {
            def Xform "head_link1" (
                instanceable = true
                prepend references = @./instances.usda@</Instances/mesh_4>
            )
            {
                token visibility = "inherited"
            }
        }

        def Xform "collisions"
        {
        }
    }

    def Xform "head_link2"
    {
        quatd xformOp:orient = (0.7071067094802856, -0.7071067094802856, 0, 0)
        double3 xformOp:scale = (1, 1, 1)
        double3 xformOp:translate = (0.18123798072338104, 2.6285649212809403e-8, 1.140565037727356)
        uniform token[] xformOpOrder = ["xformOp:translate", "xformOp:orient", "xformOp:scale"]

        def Xform "head_camera"
        {
            quatd xformOp:orient = (0.7071067690849304, 0.7071067690849304, 0, 0)
            double3 xformOp:scale = (1, 1, 1)
            double3 xformOp:translate = (0.10300000011920929, -0.042100001126527786, 0)
            uniform token[] xformOpOrder = ["xformOp:translate", "xformOp:orient", "xformOp:scale"]
        }

        def Xform "visuals" (
            instanceable = false
        )
        {
            def Xform "head_link2" (
                instanceable = true
                prepend references = @./instances.usda@</Instances/mesh_5>
            )
            {
                token visibility = "inherited"
                quatd xformOp:orient = (0, 1, 0, 0)
                double3 xformOp:scale = (1, 1, 1)
                double3 xformOp:translate = (0, 0, 0)
                uniform token[] xformOpOrder = ["xformOp:translate", "xformOp:orient", "xformOp:scale"]
            }
        }

        def Xform "collisions" (
            instanceable = false
        )
        {
            def Xform "mesh_0"
            {
                uniform token purpose = "guide"
                quatd xformOp:orient = (1, 0, 0, 0)
                double3 xformOp:scale = (1, 1, 1)
                double3 xformOp:translate = (0.011500973254442215, -0.025260014459490776, 0.0008537154062651098)
                uniform token[] xformOpOrder = ["xformOp:translate", "xformOp:orient", "xformOp:scale"]

                def Sphere "sphere" (
                    prepend apiSchemas = ["PhysicsCollisionAPI"]
                )
                {
                    float3[] extent = [(-0.11257069, -0.11257069, -0.11257069), (0.11257069, 0.11257069, 0.11257069)]
                    double radius = 0.11257068812847137
                }
            }
        }
    }

    def Xform "left_link1"
    {
        quatd xformOp:orient = (0.7071067094802856, -0.7071067094802856, 0, 0)
        double3 xformOp:scale = (1, 1, 1)
        double3 xformOp:translate = (0.13099999725818634, 0.21089999377727509, 0.9445000290870667)
        uniform token[] xformOpOrder = ["xformOp:translate", "xformOp:orient", "xformOp:scale"]

        def Xform "visuals" (
            instanceable = false
        )
        {
            def Xform "link1" (
                instanceable = true
                prepend references = @./instances.usda@</Instances/mesh_6>
            )
            {
                token visibility = "inherited"
            }
        }

        def Xform "collisions" (
            instanceable = false
        )
        {
            def Xform "mesh_0"
            {
                uniform token purpose = "guide"
                quatd xformOp:orient = (0.80901700258255, 0, 0, -0.5877852439880371)
                double3 xformOp:scale = (1, 1, 1)
                double3 xformOp:translate = (0.002681443467736244, 0.0006133774877525866, -0.04071124643087387)
                uniform token[] xformOpOrder = ["xformOp:translate", "xformOp:orient", "xformOp:scale"]

                def Cylinder "cylinder" (
                    prepend apiSchemas = ["PhysicsCollisionAPI"]
                )
                {
                    uniform token axis = "Z"
                    float3[] extent = [(-0.055792682, -0.055792682, -0.08321032), (0.055792682, 0.055792682, 0.08321032)]
                    double height = 0.16642063856124878
                    double radius = 0.055792681872844696
                }
            }
        }
    }

    def Xform "left_link2"
    {
        quatd xformOp:orient = (0, -0.7071066498756409, 0, 0.7071066498756409)
        double3 xformOp:scale = (1, 1, 1)
        double3 xformOp:translate = (0.13099999725818634, 0.21089999377727509, 0.9445000290870667)
        uniform token[] xformOpOrder = ["xformOp:translate", "xformOp:orient", "xformOp:scale"]

        def Xform "visuals" (
            instanceable = false
        )
        {
            def Xform "link2" (
                instanceable = true
                prepend references = @./instances.usda@</Instances/mesh_7>
            )
            {
                token visibility = "inherited"
            }
        }

        def Xform "collisions" (
            instanceable = false
        )
        {
            def Xform "mesh_0"
            {
                uniform token purpose = "guide"
                quatd xformOp:orient = (0.7071067690849304, 0.7071067690849304, 0, 0)
                double3 xformOp:scale = (1, 1, 1)
                double3 xformOp:translate = (0, -0.0440620519220829, 0.0009765625)
                uniform token[] xformOpOrder = ["xformOp:translate", "xformOp:orient", "xformOp:scale"]

                def Cylinder "cylinder" (
                    prepend apiSchemas = ["PhysicsCollisionAPI"]
                )
                {
                    uniform token axis = "Z"
                    float3[] extent = [(-0.06302423, -0.06302423, -0.0904296), (0.06302423, 0.06302423, 0.0904296)]
                    double height = 0.18085919320583344
                    double radius = 0.06302423030138016
                }
            }
        }
    }

    def Xform "left_link3"
    {
        quatd xformOp:orient = (-0.7071065902709961, 0.7071066498756409, 0, 0)
        double3 xformOp:scale = (1, 1, 1)
        double3 xformOp:translate = (0.13099999725818634, 0.5159000158309937, 0.9445000290870667)
        uniform token[] xformOpOrder = ["xformOp:translate", "xformOp:orient", "xformOp:scale"]

        def Xform "visuals" (
            instanceable = false
        )
        {
            def Xform "link3" (
                instanceable = true
                prepend references = @./instances.usda@</Instances/mesh_8>
            )
            {
                token visibility = "inherited"
            }
        }

        def Xform "collisions" (
            instanceable = false
        )
        {
            def Xform "mesh_0"
            {
                uniform token purpose = "guide"
                quatd xformOp:orient = (1, 0, 0, 0)
                double3 xformOp:scale = (1, 1, 1)
                double3 xformOp:translate = (0.0006559932371601462, -0.000022628975784755312, -0.07219302654266357)
                uniform token[] xformOpOrder = ["xformOp:translate", "xformOp:orient", "xformOp:scale"]

                def Cylinder "cylinder" (
                    prepend apiSchemas = ["PhysicsCollisionAPI"]
                )
                {
                    uniform token axis = "Z"
                    float3[] extent = [(-0.052161563, -0.052161563, -0.110307015), (0.052161563, 0.052161563, 0.110307015)]
                    double height = 0.22061403095722198
                    double radius = 0.0521615631878376
                }
            }
        }
    }

    def Xform "left_link4"
    {
        quatd xformOp:orient = (-1.7763568394002505e-15, -4.371138118131057e-8, -5.960464477539063e-8, -0.9999997615814209)
        double3 xformOp:scale = (1, 1, 1)
        double3 xformOp:translate = (0.13099999725818634, 0.5159000158309937, 0.9445000290870667)
        uniform token[] xformOpOrder = ["xformOp:translate", "xformOp:orient", "xformOp:scale"]

        def Xform "visuals" (
            instanceable = false
        )
        {
            def Xform "link4" (
                instanceable = true
                prepend references = @./instances.usda@</Instances/mesh_9>
            )
            {
                token visibility = "inherited"
            }
        }

        def Xform "collisions" (
            instanceable = false
        )
        {
            def Xform "mesh_0"
            {
                uniform token purpose = "guide"
                quatd xformOp:orient = (0.7071067690849304, 0.7071067690849304, 0, 0)
                double3 xformOp:scale = (1, 1, 1)
                double3 xformOp:translate = (0, -0.038178950548172, -0.00439453125)
                uniform token[] xformOpOrder = ["xformOp:translate", "xformOp:orient", "xformOp:scale"]

                def Cylinder "cylinder" (
                    prepend apiSchemas = ["PhysicsCollisionAPI"]
                )
                {
                    uniform token axis = "Z"
                    float3[] extent = [(-0.057891708, -0.057891708, -0.0774777), (0.057891708, 0.057891708, 0.0774777)]
                    double height = 0.1549554020166397
                    double radius = 0.05789170786738396
                }
            }
        }
    }

    def Xform "left_link5"
    {
        quatd xformOp:orient = (-0.7071065306663513, 0.7071066498756409, -6.181722511655607e-8, 1.8422972955528137e-15)
        double3 xformOp:scale = (1, 1, 1)
        double3 xformOp:translate = (0.13099999725818634, 0.7134000062942505, 0.9445000290870667)
        uniform token[] xformOpOrder = ["xformOp:translate", "xformOp:orient", "xformOp:scale"]

        def Xform "visuals" (
            instanceable = false
        )
        {
            def Xform "link5" (
                instanceable = true
                prepend references = @./instances.usda@</Instances/mesh_10>
            )
            {
                token visibility = "inherited"
            }
        }

        def Xform "collisions" (
            instanceable = false
        )
        {
            def Xform "mesh_0"
            {
                uniform token purpose = "guide"
                quatd xformOp:orient = (1, 0, 0, 0)
                double3 xformOp:scale = (1, 1, 1)
                double3 xformOp:translate = (-0.00022255509975366294, -0.000042274765291949734, -0.03344946354627609)
                uniform token[] xformOpOrder = ["xformOp:translate", "xformOp:orient", "xformOp:scale"]

                def Cylinder "cylinder" (
                    prepend apiSchemas = ["PhysicsCollisionAPI"]
                )
                {
                    uniform token axis = "Z"
                    float3[] extent = [(-0.045620285, -0.045620285, -0.06711903), (0.045620285, 0.045620285, 0.06711903)]
                    double height = 0.13423806428909302
                    double radius = 0.04562028497457504
                }
            }
        }
    }

    def Xform "left_link6"
    {
        quatd xformOp:orient = (8.940696716308594e-8, 0.9999997615814209, -4.371137762859689e-8, -4.371137762859689e-8)
        double3 xformOp:scale = (1, 1, 1)
        double3 xformOp:translate = (0.13099999725818634, 0.7134000062942505, 0.9445000290870667)
        uniform token[] xformOpOrder = ["xformOp:translate", "xformOp:orient", "xformOp:scale"]

        def Xform "visuals" (
            instanceable = false
        )
        {
            def Xform "link6" (
                instanceable = true
                prepend references = @./instances.usda@</Instances/mesh_11>
            )
            {
                token visibility = "inherited"
            }
        }

        def Xform "collisions" (
            instanceable = false
        )
        {
            def Xform "mesh_0"
            {
                uniform token purpose = "guide"
                float3 xformOp:rotateXYZ = (90, 0, 0)
                double3 xformOp:scale = (1, 1, 1)
                double3 xformOp:translate = (-0.000017782549548428506, -0.05507596954703331, -0.001744715729728341)
                uniform token[] xformOpOrder = ["xformOp:translate", "xformOp:rotateXYZ", "xformOp:scale"]

                def Cylinder "cylinder" (
                    prepend apiSchemas = ["PhysicsCollisionAPI"]
                )
                {
                    uniform token axis = "Z"
                    float3[] extent = [(-0.048571493, -0.048571493, -0.09136244), (0.048571493, 0.048571493, 0.09136244)]
                    double height = 0.18272487819194794
                    double radius = 0.04857149347662926
                }
            }
        }
    }

    def Xform "left_end_link"
    {
        quatd xformOp:orient = (-0.7071065306663513, 0.7071066498756409, -6.181722511655607e-8, 0)
        double3 xformOp:scale = (1, 1, 1)
        double3 xformOp:translate = (0.13100001215934753, 0.8939000368118286, 0.9444999694824219)
        uniform token[] xformOpOrder = ["xformOp:translate", "xformOp:orient", "xformOp:scale"]

        def Xform "visuals" (
            instanceable = false
        )
        {
            def Xform "link7" (
                instanceable = true
                prepend references = @./instances.usda@</Instances/mesh_12>
            )
            {
                token visibility = "inherited"
            }
        }

        def Xform "collisions" (
            instanceable = false
        )
        {
            def Xform "mesh_0"
            {
                uniform token purpose = "guide"
                quatd xformOp:orient = (1.849453029891218e-15, -4.371138828673793e-8, 1, -4.371138828673793e-8)
                double3 xformOp:scale = (1, 1, 1)
                double3 xformOp:translate = (-0.00004552953760139644, -0.0023004747927188873, -0.022499999031424522)
                uniform token[] xformOpOrder = ["xformOp:translate", "xformOp:orient", "xformOp:scale"]

                def Cylinder "cylinder" (
                    prepend apiSchemas = ["PhysicsCollisionAPI"]
                )
                {
                    uniform token axis = "Z"
                    float3[] extent = [(-0.03079995, -0.03079995, -0.023), (0.03079995, 0.03079995, 0.023)]
                    double height = 0.04600000008940697
                    double radius = 0.030799949541687965
                }
            }
        }

        def Xform "tcp" (
            prepend apiSchemas = ["IsaacSiteAPI"]
        )
        {
            quatd xformOp:orient = (1, 0, 0, 0)
            double3 xformOp:scale = (1, 1, 1)
            double3 xformOp:translate = (0, 0, 0)
            uniform token[] xformOpOrder = ["xformOp:translate", "xformOp:orient", "xformOp:scale"]
        }
    }

    def Xform "right_link1"
    {
        quatd xformOp:orient = (-3.0908619663705394e-8, 3.0908619663705394e-8, -0.7071067094802856, 0.7071067094802856)
        double3 xformOp:scale = (1, 1, 1)
        double3 xformOp:translate = (0.13100001215934753, -0.2108999639749527, 0.9444999694824219)
        uniform token[] xformOpOrder = ["xformOp:translate", "xformOp:orient", "xformOp:scale"]

        def Xform "visuals" (
            instanceable = false
        )
        {
            def Xform "link1" (
                instanceable = true
                prepend references = @./instances.usda@</Instances/mesh_6>
            )
            {
                token visibility = "inherited"
            }
        }

        def Xform "collisions" (
            instanceable = false
        )
        {
            def Xform "mesh_0"
            {
                uniform token purpose = "guide"
                quatd xformOp:orient = (0.80901700258255, 0, 0, 0.5877852439880371)
                double3 xformOp:scale = (1, 1, 1)
                double3 xformOp:translate = (-0.002681443467736244, 0.0006133774877525866, -0.04071124643087387)
                uniform token[] xformOpOrder = ["xformOp:translate", "xformOp:orient", "xformOp:scale"]

                def Cylinder "cylinder" (
                    prepend apiSchemas = ["PhysicsCollisionAPI"]
                )
                {
                    uniform token axis = "Z"
                    float3[] extent = [(-0.055792682, -0.055792682, -0.08321032), (0.055792682, 0.055792682, 0.08321032)]
                    double height = 0.16642063856124878
                    double radius = 0.055792681872844696
                }
            }
        }
    }

    def Xform "right_link2"
    {
        quatd xformOp:orient = (0.7071066498756409, 2.9802322387695312e-8, -0.7071067094802856, 5.960464477539063e-8)
        double3 xformOp:scale = (1, 1, 1)
        double3 xformOp:translate = (0.13100001215934753, -0.2108999639749527, 0.9444999694824219)
        uniform token[] xformOpOrder = ["xformOp:translate", "xformOp:orient", "xformOp:scale"]

        def Xform "visuals" (
            instanceable = false
        )
        {
            def Xform "link2" (
                instanceable = true
                prepend references = @./instances.usda@</Instances/mesh_7>
            )
            {
                token visibility = "inherited"
            }
        }

        def Xform "collisions" (
            instanceable = false
        )
        {
            def Xform "mesh_0"
            {
                uniform token purpose = "guide"
                quatd xformOp:orient = (0.7071067690849304, 0.7071067690849304, 0, 0)
                double3 xformOp:scale = (1, 1, 1)
                double3 xformOp:translate = (0, -0.0440620519220829, 0.0009765625)
                uniform token[] xformOpOrder = ["xformOp:translate", "xformOp:orient", "xformOp:scale"]

                def Cylinder "cylinder" (
                    prepend apiSchemas = ["PhysicsCollisionAPI"]
                )
                {
                    uniform token axis = "Z"
                    float3[] extent = [(-0.06302423, -0.06302423, -0.0904296), (0.06302423, 0.06302423, 0.0904296)]
                    double height = 0.18085919320583344
                    double radius = 0.06302423030138016
                }
            }
        }
    }

    def Xform "right_link3"
    {
        quatd xformOp:orient = (-5.960464477539063e-8, -3.552713678800501e-15, -0.7071065902709961, 0.7071067094802856)
        double3 xformOp:scale = (1, 1, 1)
        double3 xformOp:translate = (0.13100005686283112, -0.5158997774124146, 0.9444999694824219)
        uniform token[] xformOpOrder = ["xformOp:translate", "xformOp:orient", "xformOp:scale"]

        def Xform "visuals" (
            instanceable = false
        )
        {
            def Xform "link3" (
                instanceable = true
                prepend references = @./instances.usda@</Instances/mesh_8>
            )
            {
                token visibility = "inherited"
            }
        }

        def Xform "collisions" (
            instanceable = false
        )
        {
            def Xform "mesh_0"
            {
                uniform token purpose = "guide"
                quatd xformOp:orient = (1, 0, 0, 0)
                double3 xformOp:scale = (1, 1, 1)
                double3 xformOp:translate = (-0.0006559932371601462, -0.000022628975784755312, -0.07219302654266357)
                uniform token[] xformOpOrder = ["xformOp:translate", "xformOp:orient", "xformOp:scale"]

                def Cylinder "cylinder" (
                    prepend apiSchemas = ["PhysicsCollisionAPI"]
                )
                {
                    uniform token axis = "Z"
                    float3[] extent = [(-0.052161563, -0.052161563, -0.110307015), (0.052161563, 0.052161563, 0.110307015)]
                    double height = 0.22061403095722198
                    double radius = 0.0521615631878376
                }
            }
        }
    }

    def Xform "right_link4"
    {
        quatd xformOp:orient = (-0.9999997615814209, 8.940696716308594e-8, 8.585822541817834e-8, -4.214685134229512e-8)
        double3 xformOp:scale = (1, 1, 1)
        double3 xformOp:translate = (0.13100005686283112, -0.5158997774124146, 0.9444999694824219)
        uniform token[] xformOpOrder = ["xformOp:translate", "xformOp:orient", "xformOp:scale"]

        def Xform "visuals" (
            instanceable = false
        )
        {
            def Xform "link4" (
                instanceable = true
                prepend references = @./instances.usda@</Instances/mesh_9>
            )
            {
                token visibility = "inherited"
            }
        }

        def Xform "collisions" (
            instanceable = false
        )
        {
            def Xform "mesh_0"
            {
                uniform token purpose = "guide"
                quatd xformOp:orient = (0.7071067690849304, 0.7071067690849304, 0, 0)
                double3 xformOp:scale = (1, 1, 1)
                double3 xformOp:translate = (0, -0.038178950548172, -0.00439453125)
                uniform token[] xformOpOrder = ["xformOp:translate", "xformOp:orient", "xformOp:scale"]

                def Cylinder "cylinder" (
                    prepend apiSchemas = ["PhysicsCollisionAPI"]
                )
                {
                    uniform token axis = "Z"
                    float3[] extent = [(-0.057891708, -0.057891708, -0.0774777), (0.057891708, 0.057891708, 0.0774777)]
                    double height = 0.1549554020166397
                    double radius = 0.05789170786738396
                }
            }
        }
    }

    def Xform "right_link5"
    {
        quatd xformOp:orient = (1.2142186278651934e-7, -7.105427357601002e-15, 0.7071065306663513, -0.7071066498756409)
        double3 xformOp:scale = (1, 1, 1)
        double3 xformOp:translate = (0.1310000717639923, -0.7133995890617371, 0.9445000290870667)
        uniform token[] xformOpOrder = ["xformOp:translate", "xformOp:orient", "xformOp:scale"]

        def Xform "visuals" (
            instanceable = false
        )
        {
            def Xform "link5" (
                instanceable = true
                prepend references = @./instances.usda@</Instances/mesh_10>
            )
            {
                token visibility = "inherited"
            }
        }

        def Xform "collisions" (
            instanceable = false
        )
        {
            def Xform "mesh_0"
            {
                uniform token purpose = "guide"
                quatd xformOp:orient = (1, 0, 0, 0)
                double3 xformOp:scale = (1, 1, 1)
                double3 xformOp:translate = (0.00022255509975366294, -0.000042274765291949734, -0.03344946354627609)
                uniform token[] xformOpOrder = ["xformOp:translate", "xformOp:orient", "xformOp:scale"]

                def Cylinder "cylinder" (
                    prepend apiSchemas = ["PhysicsCollisionAPI"]
                )
                {
                    uniform token axis = "Z"
                    float3[] extent = [(-0.045620285, -0.045620285, -0.06711903), (0.045620285, 0.045620285, 0.06711903)]
                    double height = 0.13423806428909302
                    double radius = 0.04562028497457504
                }
            }
        }
    }

    def Xform "right_link6"
    {
        quatd xformOp:orient = (8.585821120732362e-8, -8.585822541817834e-8, 0.9999997615814209, -8.940696716308594e-8)
        double3 xformOp:scale = (1, 1, 1)
        double3 xformOp:translate = (0.1310000717639923, -0.7133995890617371, 0.9445000290870667)
        uniform token[] xformOpOrder = ["xformOp:translate", "xformOp:orient", "xformOp:scale"]

        def Xform "visuals" (
            instanceable = false
        )
        {
            def Xform "link6" (
                instanceable = true
                prepend references = @./instances.usda@</Instances/mesh_11>
            )
            {
                token visibility = "inherited"
            }
        }

        def Xform "collisions" (
            instanceable = false
        )
        {
            def Xform "mesh_0"
            {
                uniform token purpose = "guide"
                float3 xformOp:rotateXYZ = (90, 0, 0)
                double3 xformOp:scale = (1, 1, 1)
                double3 xformOp:translate = (0.000017782549548428506, -0.05507596954703331, -0.001744715729728341)
                uniform token[] xformOpOrder = ["xformOp:translate", "xformOp:rotateXYZ", "xformOp:scale"]

                def Cylinder "cylinder" (
                    prepend apiSchemas = ["PhysicsCollisionAPI"]
                )
                {
                    uniform token axis = "Z"
                    float3[] extent = [(-0.048571493, -0.048571493, -0.09136244), (0.048571493, 0.048571493, 0.09136244)]
                    double height = 0.18272487819194794
                    double radius = 0.04857149347662926
                }
            }
        }
    }

    def Xform "right_end_link"
    {
        quatd xformOp:orient = (1.2142186278651934e-7, -7.105427357601002e-15, 0.7071065306663513, -0.7071066498756409)
        double3 xformOp:scale = (1, 1, 1)
        double3 xformOp:translate = (0.1310001015663147, -0.8938994407653809, 0.9445000886917114)
        uniform token[] xformOpOrder = ["xformOp:translate", "xformOp:orient", "xformOp:scale"]

        def Xform "visuals" (
            instanceable = false
        )
        {
            def Xform "link7" (
                instanceable = true
                prepend references = @./instances.usda@</Instances/mesh_12>
            )
            {
                token visibility = "inherited"
            }
        }

        def Xform "collisions" (
            instanceable = false
        )
        {
            def Xform "mesh_0"
            {
                uniform token purpose = "guide"
                quatd xformOp:orient = (1.849453029891218e-15, -4.371138828673793e-8, 1, -4.371138828673793e-8)
                double3 xformOp:scale = (1, 1, 1)
                double3 xformOp:translate = (-0.00004552953760139644, -0.0023004747927188873, -0.022499999031424522)
                uniform token[] xformOpOrder = ["xformOp:translate", "xformOp:orient", "xformOp:scale"]

                def Cylinder "cylinder" (
                    prepend apiSchemas = ["PhysicsCollisionAPI"]
                )
                {
                    uniform token axis = "Z"
                    float3[] extent = [(-0.03079995, -0.03079995, -0.023), (0.03079995, 0.03079995, 0.023)]
                    double height = 0.04600000008940697
                    double radius = 0.030799949541687965
                }
            }
        }

        def Xform "tcp" (
            prepend apiSchemas = ["IsaacSiteAPI"]
        )
        {
            quatd xformOp:orient = (1, 0, 0, 0)
            double3 xformOp:scale = (1, 1, 1)
            double3 xformOp:translate = (0, 0, 0)
            uniform token[] xformOpOrder = ["xformOp:translate", "xformOp:orient", "xformOp:scale"]
        }
    }

    def Scope "Looks"
    {
    }

    def Scope "VisualMaterials"
    {
    }
}

