#usda 1.0
(
    customLayerData = {
        dictionary cameraSettings = {
            dictionary Front = {
                double3 position = (5, 0, 0)
                double radius = 5
            }
            dictionary Perspective = {
                double3 position = (3.494354585061327, 3.494354585061328, 3.4943546209984184)
                double3 target = (-3.978038431995401e-8, -3.978038209950796e-8, 7.956076863990802e-8)
            }
            dictionary Right = {
                double3 position = (0, -5, 0)
                double radius = 5
            }
            dictionary Top = {
                double3 position = (0, 0, 5)
                double radius = 5
            }
            string boundCamera = "/OmniverseKit_Persp"
        }
        dictionary omni_layer = {
            string authoring_layer = "./ARX_LIFT2S.usd"
        }
        dictionary renderSettings = {
        }
    }
    defaultPrim = "ARX_LIFT2S"
    metersPerUnit = 1
    upAxis = "Z"
)

def Xform "ARX_LIFT2S"
{
}

