#usda 1.0
(
    customLayerData = {
        dictionary cameraSettings = {
            dictionary Front = {
                double3 position = (5, 0, 0)
                double radius = 5
            }
            dictionary Perspective = {
                double3 position = (0.9820450141990662, 0.9820450141990676, 0.9820451101005419)
                double3 target = (-3.978038465302092e-8, -3.978038287666408e-8, 7.956076852888572e-8)
            }
            dictionary Right = {
                double3 position = (0, -5, 0)
                double radius = 5
            }
            dictionary Top = {
                double3 position = (0, 0, 5)
                double radius = 5
            }
            string boundCamera = "/OmniverseKit_Persp"
        }
        dictionary omni_layer = {
            string authoring_layer = "./SteerChassis.usd"
        }
        dictionary renderSettings = {
        }
    }
    defaultPrim = "SteerChassis"
    metersPerUnit = 1
    upAxis = "Z"
)

def "SteerChassis"
{
}

