#usda 1.0
(
    customLayerData = {
        dictionary cameraSettings = {
            dictionary Front = {
                double3 position = (5, 0, 0)
                double radius = 5
            }
            dictionary Perspective = {
                double3 position = (1.3509832577519139, 1.2867990653058576, 2.23572539152764)
                double3 target = (-0.2735193218382894, -0.337703514284345, 0.6112228507114386)
            }
            dictionary Right = {
                double3 position = (0, -5, 0)
                double radius = 5
            }
            dictionary Top = {
                double3 position = (0, 0, 5)
                double radius = 5
            }
            string boundCamera = "/OmniverseKit_Persp"
        }
        dictionary omni_layer = {
            string authoring_layer = "./Galaxea_R1.usd"
        }
        dictionary renderSettings = {
        }
    }
    defaultPrim = "Galaxea_R1"
    metersPerUnit = 1
    upAxis = "Z"
)

def "Galaxea_R1"
{
}

