#usda 1.0
(
    customLayerData = {
        dictionary cameraSettings = {
            dictionary Front = {
                double3 position = (5, 0, 0)
                double radius = 5
            }
            dictionary Perspective = {
                double3 position = (3.872632835829419, -3.1646952847858634, 1.576577226851735)
                double3 target = (-1.6042533136600121, 2.1839883435628327, 0.2633624574346112)
            }
            dictionary Right = {
                double3 position = (0.3468094947870353, -5, 0.07602648924614672)
                double radius = 0.36727607250213623
            }
            dictionary Top = {
                double3 position = (0, 0, 5)
                double radius = 5
            }
            string boundCamera = "/OmniverseKit_Persp"
        }
        dictionary metricsAssembler = {
            dictionary "/Split_Aloha/dabai" = {
            }
            dictionary "/Split_Aloha/mid360" = {
            }
            int version = 1
        }
        dictionary omni_layer = {
            string authoring_layer = "./Split Aloha.usda"
        }
        dictionary renderSettings = {
        }
    }
    defaultPrim = "Split_Aloha"
    endTimeCode = 0
    metersPerUnit = 1
    startTimeCode = -1
    upAxis = "Z"
)

def "Split_Aloha"
{
}

