#usda 1.0
(
    customLayerData = {
        dictionary cameraSettings = {
            dictionary Front = {
                double3 position = (5, 0, 0)
                double radius = 5
            }
            dictionary Perspective = {
                double3 position = (0.5979233620665069, 0.8761666046421297, 0.27834504477750877)
                double3 target = (0.024265257960828013, -0.7104306074861884, -0.0024753439593301896)
            }
            dictionary Right = {
                double3 position = (0, -5, 0)
                double radius = 5
            }
            dictionary Top = {
                double3 position = (0, 0, 5)
                double radius = 5
            }
            string boundCamera = "/OmniverseKit_Persp"
        }
        dictionary metricsAssembler = {
            dictionary "/Woosh_AGV/base_footprint/base_link/chassis_camera_link/orbbec_dabai_dw" = {
            }
            dictionary "/Woosh_AGV/base_footprint/base_link/chassis_panel/panel" = {
            }
            dictionary "/Woosh_AGV/base_footprint/base_link/lidar_link/oradar_ms500" = {
            }
            int version = 1
        }
        dictionary omni_layer = {
            string authoring_layer = "./Woosh_AGV.usd"
            dictionary locked = {
            }
            dictionary muteness = {
            }
        }
        dictionary renderSettings = {
        }
    }
    defaultPrim = "Woosh_AGV"
    doc = """Generated from Composed Stage of root layer /home/fiveages/libraries/FaSim-Isaac/robots/humanoid/Realman_AIDAL/Woosh_AGV/RM_AIDAL_Chassis.usd


Generated from Composed Stage of root layer /home/fiveages/libraries/FaSim-Isaac/robots/mobile_base/Woosh/payloads/base.usd
"""
    metersPerUnit = 1
    subLayers = [
        @./robot.usda@
    ]
    upAxis = "Z"
)

def Xform "Woosh_AGV"
{
    quatd xformOp:orient = (1, 0, 0, 0)
    double3 xformOp:scale = (1, 1, 1)
    double3 xformOp:translate = (0, 0, 0)
    uniform token[] xformOpOrder = ["xformOp:translate", "xformOp:orient", "xformOp:scale"]

    def Xform "base_footprint"
    {
        quatd xformOp:orient = (1, 0, 0, 0)
        double3 xformOp:scale = (1, 1, 1)
        double3 xformOp:translate = (0, 0, 0)
        uniform token[] xformOpOrder = ["xformOp:translate", "xformOp:orient", "xformOp:scale"]

        def Xform "base_link"
        {
            quatd xformOp:orient = (0.7071067690849304, 0, 0, 0.7071067690849304)
            double3 xformOp:scale = (1, 1, 1)
            double3 xformOp:translate = (0.015573999844491482, 0, 0.23800000548362732)
            uniform token[] xformOpOrder = ["xformOp:translate", "xformOp:orient", "xformOp:scale"]

            def Xform "chassis_camera_link"
            {
                quatd xformOp:orient = (-3.0908619663705394e-8, 3.0908619663705394e-8, -0.7071067690849304, 0.7071067690849304)
                double3 xformOp:scale = (1, 1, 1)
                double3 xformOp:translate = (0, -0.29649999737739563, -0.11259999871253967)
                uniform token[] xformOpOrder = ["xformOp:translate", "xformOp:orient", "xformOp:scale"]

                def Camera "chassis_camera"
                {
                    float2 clippingRange = (0.01, 10000000)
                    float focalLength = 18.147562
                    float focusDistance = 400
                    quatd xformOp:orient = (6.123233995736766e-17, 1, 0, 0)
                    double3 xformOp:scale = (1, 1, 1)
                    double3 xformOp:translate = (0, 0, 0)
                    uniform token[] xformOpOrder = ["xformOp:translate", "xformOp:orient", "xformOp:scale"]
                }
            }

            def Xform "chassis_panel"
            {
                quatd xformOp:orient = (1, 0, 0, 0)
                double3 xformOp:scale = (1, 1, 1)
                double3 xformOp:translate = (0.18000000715255737, 0.11800000071525574, -0.027499999850988388)
                uniform token[] xformOpOrder = ["xformOp:translate", "xformOp:orient", "xformOp:scale"]
            }

            def Xform "lidar_link"
            {
                quatd xformOp:orient = (1, 0, 0, 0)
                double3 xformOp:scale = (1, 1, 1)
                double3 xformOp:translate = (0, -0.24959999322891235, -0.09480799734592438)
                uniform token[] xformOpOrder = ["xformOp:translate", "xformOp:orient", "xformOp:scale"]

                def "Woosh_AGV"
                {
                    def OmniLidar "Example_Rotary_2D" (
                        prepend apiSchemas = ["OmniSensorGenericLidarCoreAPI"]
                    )
                    {
                        bool omni:sensor:Core:accumulateOutputs = 1
                        float omni:sensor:Core:azimuthErrorMean = 0
                        float omni:sensor:Core:azimuthErrorStd = 0.015
                        float omni:sensor:Core:elevationErrorMean = 0
                        float omni:sensor:Core:elevationErrorStd = 0
                        float[] omni:sensor:Core:emitterState:s001:azimuthDeg = [-3, -3, -3, -3, -3, -3, -3, -3, -3, -3, -3, -3, -3, -3, -3, -3, -3, -3, -3, -3, -3, -3, -3, -3, -3, -3, -3, -3, -3, -3, -3, -3, -1, -1, -1, -1, -1, -1, -1, -1, -1, -1, -1, -1, -1, -1, -1, -1, -1, -1, -1, -1, -1, -1, -1, -1, -1, -1, -1, -1, -1, -1, -1, -1, 1, 1, 1, 1, 1, 1, 1, 1, 1, 1, 1, 1, 1, 1, 1, 1, 1, 1, 1, 1, 1, 1, 1, 1, 1, 1, 1, 1, 1, 1, 1, 1, 3, 3, 3, 3, 3, 3, 3, 3, 3, 3, 3, 3, 3, 3, 3, 3, 3, 3, 3, 3, 3, 3, 3, 3, 3, 3, 3, 3, 3, 3, 3, 3]
                        uint[] omni:sensor:Core:emitterState:s001:channelId = [1, 2, 3, 4, 5, 6, 7, 8, 9, 10, 11, 12, 13, 14, 15, 16, 17, 18, 19, 20, 21, 22, 23, 24, 25, 26, 27, 28, 29, 30, 31, 32, 33, 34, 35, 36, 37, 38, 39, 40, 41, 42, 43, 44, 45, 46, 47, 48, 49, 50, 51, 52, 53, 54, 55, 56, 57, 58, 59, 60, 61, 62, 63, 64, 65, 66, 67, 68, 69, 70, 71, 72, 73, 74, 75, 76, 77, 78, 79, 80, 81, 82, 83, 84, 85, 86, 87, 88, 89, 90, 91, 92, 93, 94, 95, 96, 97, 98, 99, 100, 101, 102, 103, 104, 105, 106, 107, 108, 109, 110, 111, 112, 113, 114, 115, 116, 117, 118, 119, 120, 121, 122, 123, 124, 125, 126, 127, 128]
                        float[] omni:sensor:Core:emitterState:s001:distanceCorrectionM = [0, 0, 0, 0, 0, 0, 0, 0, 0, 0, 0, 0, 0, 0, 0, 0, 0, 0, 0, 0, 0, 0, 0, 0, 0, 0, 0, 0, 0, 0, 0, 0, 0, 0, 0, 0, 0, 0, 0, 0, 0, 0, 0, 0, 0, 0, 0, 0, 0, 0, 0, 0, 0, 0, 0, 0, 0, 0, 0, 0, 0, 0, 0, 0, 0, 0, 0, 0, 0, 0, 0, 0, 0, 0, 0, 0, 0, 0, 0, 0, 0, 0, 0, 0, 0, 0, 0, 0, 0, 0, 0, 0, 0, 0, 0, 0, 0, 0, 0, 0, 0, 0, 0, 0, 0, 0, 0, 0, 0, 0, 0, 0, 0, 0, 0, 0, 0, 0, 0, 0, 0, 0, 0, 0, 0, 0, 0, 0]
                        float[] omni:sensor:Core:emitterState:s001:elevationDeg = [0, 0, 0, 0, 0, 0, 0, 0, 0, 0, 0, 0, 0, 0, 0, 0, 0, 0, 0, 0, 0, 0, 0, 0, 0, 0, 0, 0, 0, 0, 0, 0, 0, 0, 0, 0, 0, 0, 0, 0, 0, 0, 0, 0, 0, 0, 0, 0, 0, 0, 0, 0, 0, 0, 0, 0, 0, 0, 0, 0, 0, 0, 0, 0, 0, 0, 0, 0, 0, 0, 0, 0, 0, 0, 0, 0, 0, 0, 0, 0, 0, 0, 0, 0, 0, 0, 0, 0, 0, 0, 0, 0, 0, 0, 0, 0, 0, 0, 0, 0, 0, 0, 0, 0, 0, 0, 0, 0, 0, 0, 0, 0, 0, 0, 0, 0, 0, 0, 0, 0, 0, 0, 0, 0, 0, 0, 0, 0]
                        float[] omni:sensor:Core:emitterState:s001:emitterPeakPowerW = [0, 0, 0, 0, 0, 0, 0, 0, 0, 0, 0, 0, 0, 0, 0, 0, 0, 0, 0, 0, 0, 0, 0, 0, 0, 0, 0, 0, 0, 0, 0, 0, 0, 0, 0, 0, 0, 0, 0, 0, 0, 0, 0, 0, 0, 0, 0, 0, 0, 0, 0, 0, 0, 0, 0, 0, 0, 0, 0, 0, 0, 0, 0, 0, 0, 0, 0, 0, 0, 0, 0, 0, 0, 0, 0, 0, 0, 0, 0, 0, 0, 0, 0, 0, 0, 0, 0, 0, 0, 0, 0, 0, 0, 0, 0, 0, 0, 0, 0, 0, 0, 0, 0, 0, 0, 0, 0, 0, 0, 0, 0, 0, 0, 0, 0, 0, 0, 0, 0, 0, 0, 0, 0, 0, 0, 0, 0, 0]
                        uint[] omni:sensor:Core:emitterState:s001:fireTimeNs = [0, 0, 0, 0, 0, 0, 0, 0, 0, 0, 0, 0, 0, 0, 0, 0, 3500, 3500, 3500, 3500, 3500, 3500, 3500, 3500, 3500, 3500, 3500, 3500, 3500, 3500, 3500, 3500, 7000, 7000, 7000, 7000, 7000, 7000, 7000, 7000, 7000, 7000, 7000, 7000, 7000, 7000, 7000, 7000, 10500, 10500, 10500, 10500, 10500, 10500, 10500, 10500, 10500, 10500, 10500, 10500, 10500, 10500, 10500, 10500, 14000, 14000, 14000, 14000, 14000, 14000, 14000, 14000, 14000, 14000, 14000, 14000, 14000, 14000, 14000, 14000, 17500, 17500, 17500, 17500, 17500, 17500, 17500, 17500, 17500, 17500, 17500, 17500, 17500, 17500, 17500, 17500, 21000, 21000, 21000, 21000, 21000, 21000, 21000, 21000, 21000, 21000, 21000, 21000, 21000, 21000, 21000, 21000, 24500, 24500, 24500, 24500, 24500, 24500, 24500, 24500, 24500, 24500, 24500, 24500, 24500, 24500, 24500, 24500]
                        float[] omni:sensor:Core:emitterState:s001:focalDistM = [0, 0, 0, 0, 0, 0, 0, 0, 0, 0, 0, 0, 0, 0, 0, 0, 0, 0, 0, 0, 0, 0, 0, 0, 0, 0, 0, 0, 0, 0, 0, 0, 0, 0, 0, 0, 0, 0, 0, 0, 0, 0, 0, 0, 0, 0, 0, 0, 0, 0, 0, 0, 0, 0, 0, 0, 0, 0, 0, 0, 0, 0, 0, 0, 0, 0, 0, 0, 0, 0, 0, 0, 0, 0, 0, 0, 0, 0, 0, 0, 0, 0, 0, 0, 0, 0, 0, 0, 0, 0, 0, 0, 0, 0, 0, 0, 0, 0, 0, 0, 0, 0, 0, 0, 0, 0, 0, 0, 0, 0, 0, 0, 0, 0, 0, 0, 0, 0, 0, 0, 0, 0, 0, 0, 0, 0, 0, 0]
                        float[] omni:sensor:Core:emitterState:s001:focalSlope = [0, 0, 0, 0, 0, 0, 0, 0, 0, 0, 0, 0, 0, 0, 0, 0, 0, 0, 0, 0, 0, 0, 0, 0, 0, 0, 0, 0, 0, 0, 0, 0, 0, 0, 0, 0, 0, 0, 0, 0, 0, 0, 0, 0, 0, 0, 0, 0, 0, 0, 0, 0, 0, 0, 0, 0, 0, 0, 0, 0, 0, 0, 0, 0, 0, 0, 0, 0, 0, 0, 0, 0, 0, 0, 0, 0, 0, 0, 0, 0, 0, 0, 0, 0, 0, 0, 0, 0, 0, 0, 0, 0, 0, 0, 0, 0, 0, 0, 0, 0, 0, 0, 0, 0, 0, 0, 0, 0, 0, 0, 0, 0, 0, 0, 0, 0, 0, 0, 0, 0, 0, 0, 0, 0, 0, 0, 0, 0]
                        float[] omni:sensor:Core:emitterState:s001:horOffsetM = [0, 0, 0, 0, 0, 0, 0, 0, 0, 0, 0, 0, 0, 0, 0, 0, 0, 0, 0, 0, 0, 0, 0, 0, 0, 0, 0, 0, 0, 0, 0, 0, 0, 0, 0, 0, 0, 0, 0, 0, 0, 0, 0, 0, 0, 0, 0, 0, 0, 0, 0, 0, 0, 0, 0, 0, 0, 0, 0, 0, 0, 0, 0, 0, 0, 0, 0, 0, 0, 0, 0, 0, 0, 0, 0, 0, 0, 0, 0, 0, 0, 0, 0, 0, 0, 0, 0, 0, 0, 0, 0, 0, 0, 0, 0, 0, 0, 0, 0, 0, 0, 0, 0, 0, 0, 0, 0, 0, 0, 0, 0, 0, 0, 0, 0, 0, 0, 0, 0, 0, 0, 0, 0, 0, 0, 0, 0, 0]
                        float[] omni:sensor:Core:emitterState:s001:vertOffsetM = [0, 0, 0, 0, 0, 0, 0, 0, 0, 0, 0, 0, 0, 0, 0, 0, 0, 0, 0, 0, 0, 0, 0, 0, 0, 0, 0, 0, 0, 0, 0, 0, 0, 0, 0, 0, 0, 0, 0, 0, 0, 0, 0, 0, 0, 0, 0, 0, 0, 0, 0, 0, 0, 0, 0, 0, 0, 0, 0, 0, 0, 0, 0, 0, 0, 0, 0, 0, 0, 0, 0, 0, 0, 0, 0, 0, 0, 0, 0, 0, 0, 0, 0, 0, 0, 0, 0, 0, 0, 0, 0, 0, 0, 0, 0, 0, 0, 0, 0, 0, 0, 0, 0, 0, 0, 0, 0, 0, 0, 0, 0, 0, 0, 0, 0, 0, 0, 0, 0, 0, 0, 0, 0, 0, 0, 0, 0, 0]
                        float omni:sensor:Core:farRangeM = 200
                        token omni:sensor:Core:intensityMappingType = "LINEAR"
                        token omni:sensor:Core:intensityProcessing = "NORMALIZATION"
                        uint omni:sensor:Core:maxReturns = 2
                        float omni:sensor:Core:minReflectance = 0.1
                        float omni:sensor:Core:nearRangeM = 1
                        uint omni:sensor:Core:numberOfChannels = 128
                        uint omni:sensor:Core:numberOfEmitters = 128
                        float omni:sensor:Core:peakPowerW = 0.002
                        uint omni:sensor:Core:pulseTimeNs = 6
                        float omni:sensor:Core:rangeAccuracyM = 0.02
                        float omni:sensor:Core:rangeResolutionM = 0.004
                        token omni:sensor:Core:rayType = "IDEALIZED"
                        uint omni:sensor:Core:reportRateBaseHz = 36000
                        token omni:sensor:Core:rotationDirection = "CW"
                        uint omni:sensor:Core:scanRateBaseHz = 10
                        token omni:sensor:Core:scanType = "ROTARY"
                        bool omni:sensor:Core:skipDroppingInvalidPoints = 1
                        float omni:sensor:Core:startAzimuthOffsetDeg = 0
                        string omni:sensor:modelName = "Example_Rotary"
                        float omni:sensor:tickRate = 10
                        quatd xformOp:orient = (1, 0, 0, 0)
                        double3 xformOp:scale = (1, 1, 1)
                        double3 xformOp:translate = (-3.1587959641868744e-22, 1.454392162258955e-14, 0.06)
                        uniform token[] xformOpOrder = ["xformOp:translate", "xformOp:orient", "xformOp:scale"]
                    }
                }
            }
        }

        def Xform "visuals" (
            instanceable = false
        )
        {
            def Xform "base" (
                instanceable = true
                prepend references = @./instances.usda@</Instances/mesh>
            )
            {
                token visibility = "inherited"
                quatd xformOp:orient = (0.7071067691, 0, 0, 0.7071067933)
                double3 xformOp:scale = (1, 1, 1)
                double3 xformOp:translate = (0.01557399984, 0, 0.2380000055)
                uniform token[] xformOpOrder = ["xformOp:translate", "xformOp:orient", "xformOp:scale"]
            }
        }

        def Xform "collisions" (
            instanceable = false
        )
        {
            def Xform "mesh_0"
            {
                uniform token purpose = "guide"
                quatd xformOp:orient = (0.7071067690849304, 0, 0, 0.7071067690849304)
                double3 xformOp:scale = (0.4000000059604645, 0.6000000238418579, 0.20000000298023224)
                double3 xformOp:translate = (0.015574000775814056, -0.015573998913168907, 0.1380000114440918)
                uniform token[] xformOpOrder = ["xformOp:translate", "xformOp:orient", "xformOp:scale"]

                def Cube "box" (
                    prepend apiSchemas = ["PhysicsCollisionAPI"]
                )
                {
                    float3[] extent = [(-0.2, -0.3, -0.1), (0.2, 0.3, 0.1)]
                    double size = 1
                }
            }
        }
    }

    def Xform "caster_1_link"
    {
        quatd xformOp:orient = (-0.7071068286895752, 0, 0, 0.7071067094802856)
        double3 xformOp:scale = (1, 1, 1)
        double3 xformOp:translate = (0.19400399923324585, 0.12400000542402267, 0.07910002768039703)
        uniform token[] xformOpOrder = ["xformOp:translate", "xformOp:orient", "xformOp:scale"]

        def Xform "visuals" (
            instanceable = false
        )
        {
            def Xform "caster" (
                instanceable = true
                prepend references = @./instances.usda@</Instances/mesh_1>
            )
            {
                token visibility = "inherited"
            }
        }

        def Xform "collisions"
        {
        }
    }

    def Scope "joints"
    {
    }

    def Xform "caster_wheel_1_link"
    {
        quatd xformOp:orient = (-0.7071068286895752, 0, 0, 0.7071067094802856)
        double3 xformOp:scale = (1, 1, 1)
        double3 xformOp:translate = (0.17200399935245514, 0.12400000542402267, 0.03394003212451935)
        uniform token[] xformOpOrder = ["xformOp:translate", "xformOp:orient", "xformOp:scale"]

        def Xform "visuals" (
            instanceable = false
        )
        {
            def Xform "caster_wheel" (
                instanceable = true
                prepend references = @./instances.usda@</Instances/mesh_2>
            )
            {
                token visibility = "inherited"
            }
        }

        def Xform "collisions" (
            instanceable = false
        )
        {
            def Xform "mesh_0"
            {
                uniform token purpose = "guide"
                quatd xformOp:orient = (1, 0, 0, 0)
                double3 xformOp:scale = (1, 1, 1)
                double3 xformOp:translate = (0, 0, 0)
                uniform token[] xformOpOrder = ["xformOp:translate", "xformOp:orient", "xformOp:scale"]

                def Sphere "sphere" (
                    prepend apiSchemas = ["PhysicsCollisionAPI"]
                )
                {
                    float3[] extent = [(-0.0375, -0.0375, -0.0375), (0.0375, 0.0375, 0.0375)]
                    double radius = 0.03750000149011612
                }
            }
        }
    }

    def Xform "caster_2_link"
    {
        quatd xformOp:orient = (-0.7071068286895752, 0, 0, 0.7071067094802856)
        double3 xformOp:scale = (1, 1, 1)
        double3 xformOp:translate = (-0.1784299910068512, -0.12400001287460327, 0.07910002768039703)
        uniform token[] xformOpOrder = ["xformOp:translate", "xformOp:orient", "xformOp:scale"]

        def Xform "visuals" (
            instanceable = false
        )
        {
            def Xform "caster" (
                instanceable = true
                prepend references = @./instances.usda@</Instances/mesh_1>
            )
            {
                token visibility = "inherited"
            }
        }

        def Xform "collisions"
        {
        }
    }

    def Xform "caster_wheel_2_link"
    {
        quatd xformOp:orient = (-0.7071068286895752, 0, 0, 0.7071067094802856)
        double3 xformOp:scale = (1, 1, 1)
        double3 xformOp:translate = (-0.2004299908876419, -0.12400001287460327, 0.03394003212451935)
        uniform token[] xformOpOrder = ["xformOp:translate", "xformOp:orient", "xformOp:scale"]

        def Xform "visuals" (
            instanceable = false
        )
        {
            def Xform "caster_wheel" (
                instanceable = true
                prepend references = @./instances.usda@</Instances/mesh_2>
            )
            {
                token visibility = "inherited"
            }
        }

        def Xform "collisions" (
            instanceable = false
        )
        {
            def Xform "mesh_0"
            {
                uniform token purpose = "guide"
                quatd xformOp:orient = (1, 0, 0, 0)
                double3 xformOp:scale = (1, 1, 1)
                double3 xformOp:translate = (0, 0, 0)
                uniform token[] xformOpOrder = ["xformOp:translate", "xformOp:orient", "xformOp:scale"]

                def Sphere "sphere" (
                    prepend apiSchemas = ["PhysicsCollisionAPI"]
                )
                {
                    float3[] extent = [(-0.0375, -0.0375, -0.0375), (0.0375, 0.0375, 0.0375)]
                    double radius = 0.03750000149011612
                }
            }
        }
    }

    def Xform "caster_3_link"
    {
        quatd xformOp:orient = (-0.7071068286895752, 0, 0, 0.7071067094802856)
        double3 xformOp:scale = (1, 1, 1)
        double3 xformOp:translate = (-0.1784299910068512, 0.12399998307228088, 0.07910002768039703)
        uniform token[] xformOpOrder = ["xformOp:translate", "xformOp:orient", "xformOp:scale"]

        def Xform "visuals" (
            instanceable = false
        )
        {
            def Xform "caster" (
                instanceable = true
                prepend references = @./instances.usda@</Instances/mesh_1>
            )
            {
                token visibility = "inherited"
            }
        }

        def Xform "collisions"
        {
        }
    }

    def Xform "caster_wheel_3_link"
    {
        quatd xformOp:orient = (-0.7071068286895752, 0, 0, 0.7071067094802856)
        double3 xformOp:scale = (1, 1, 1)
        double3 xformOp:translate = (-0.2004299908876419, 0.12399998307228088, 0.03394003212451935)
        uniform token[] xformOpOrder = ["xformOp:translate", "xformOp:orient", "xformOp:scale"]

        def Xform "visuals" (
            instanceable = false
        )
        {
            def Xform "caster_wheel" (
                instanceable = true
                prepend references = @./instances.usda@</Instances/mesh_2>
            )
            {
                token visibility = "inherited"
            }
        }

        def Xform "collisions" (
            instanceable = false
        )
        {
            def Xform "mesh_0"
            {
                uniform token purpose = "guide"
                quatd xformOp:orient = (1, 0, 0, 0)
                double3 xformOp:scale = (1, 1, 1)
                double3 xformOp:translate = (0, 0, 0)
                uniform token[] xformOpOrder = ["xformOp:translate", "xformOp:orient", "xformOp:scale"]

                def Sphere "sphere" (
                    prepend apiSchemas = ["PhysicsCollisionAPI"]
                )
                {
                    float3[] extent = [(-0.0375, -0.0375, -0.0375), (0.0375, 0.0375, 0.0375)]
                    double radius = 0.03750000149011612
                }
            }
        }
    }

    def Xform "caster_4_link"
    {
        quatd xformOp:orient = (-0.7071068286895752, 0, 0, 0.7071067094802856)
        double3 xformOp:scale = (1, 1, 1)
        double3 xformOp:translate = (0.19400399923324585, -0.12399999052286148, 0.07910002768039703)
        uniform token[] xformOpOrder = ["xformOp:translate", "xformOp:orient", "xformOp:scale"]

        def Xform "visuals" (
            instanceable = false
        )
        {
            def Xform "caster" (
                instanceable = true
                prepend references = @./instances.usda@</Instances/mesh_1>
            )
            {
                token visibility = "inherited"
            }
        }

        def Xform "collisions"
        {
        }
    }

    def Xform "caster_wheel_4_link"
    {
        quatd xformOp:orient = (-0.7071068286895752, 0, 0, 0.7071067094802856)
        double3 xformOp:scale = (1, 1, 1)
        double3 xformOp:translate = (0.17200399935245514, -0.12399999052286148, 0.03394003212451935)
        uniform token[] xformOpOrder = ["xformOp:translate", "xformOp:orient", "xformOp:scale"]

        def Xform "visuals" (
            instanceable = false
        )
        {
            def Xform "caster_wheel" (
                instanceable = true
                prepend references = @./instances.usda@</Instances/mesh_2>
            )
            {
                token visibility = "inherited"
            }
        }

        def Xform "collisions" (
            instanceable = false
        )
        {
            def Xform "mesh_0"
            {
                uniform token purpose = "guide"
                quatd xformOp:orient = (1, 0, 0, 0)
                double3 xformOp:scale = (1, 1, 1)
                double3 xformOp:translate = (0, 0, 0)
                uniform token[] xformOpOrder = ["xformOp:translate", "xformOp:orient", "xformOp:scale"]

                def Sphere "sphere" (
                    prepend apiSchemas = ["PhysicsCollisionAPI"]
                )
                {
                    float3[] extent = [(-0.0375, -0.0375, -0.0375), (0.0375, 0.0375, 0.0375)]
                    double radius = 0.03750000149011612
                }
            }
        }
    }

    def Xform "left_wheel_link"
    {
        quatd xformOp:orient = (0.7071067690849304, 0, 0, 0.7071067690849304)
        double3 xformOp:scale = (1, 1, 1)
        double3 xformOp:translate = (-1.0244548320770264e-8, 0.18299998342990875, 0.08500002324581146)
        uniform token[] xformOpOrder = ["xformOp:translate", "xformOp:orient", "xformOp:scale"]

        def Xform "visuals" (
            instanceable = false
        )
        {
            def Xform "wheel" (
                instanceable = true
                prepend references = @./instances.usda@</Instances/mesh_3>
            )
            {
                token visibility = "inherited"
            }
        }

        def Xform "collisions" (
            instanceable = false
        )
        {
            def Xform "mesh_0"
            {
                uniform token purpose = "guide"
                quatd xformOp:orient = (0.7071067690849304, 0, 0.7071067690849304, 0)
                double3 xformOp:scale = (1, 1, 1)
                double3 xformOp:translate = (0, 0, 0)
                uniform token[] xformOpOrder = ["xformOp:translate", "xformOp:orient", "xformOp:scale"]

                def Cylinder "cylinder" (
                    prepend apiSchemas = ["PhysicsCollisionAPI"]
                )
                {
                    uniform token axis = "Z"
                    float3[] extent = [(-0.085, -0.085, -0.017), (0.085, 0.085, 0.017)]
                    double height = 0.03400000184774399
                    double radius = 0.08500000089406967
                }
            }
        }
    }

    def Xform "right_wheel_link"
    {
        quatd xformOp:orient = (0.7071067690849304, 0, 0, 0.7071067690849304)
        double3 xformOp:scale = (1, 1, 1)
        double3 xformOp:translate = (1.210719347000122e-8, -0.18299998342990875, 0.08500002324581146)
        uniform token[] xformOpOrder = ["xformOp:translate", "xformOp:orient", "xformOp:scale"]

        def Xform "visuals" (
            instanceable = false
        )
        {
            def Xform "wheel" (
                instanceable = true
                prepend references = @./instances.usda@</Instances/mesh_3>
            )
            {
                token visibility = "inherited"
                quatd xformOp:orient = (1, 0, 0, 0)
                double3 xformOp:scale = (-1, 1, 1)
                double3 xformOp:translate = (0, 0, 0)
                uniform token[] xformOpOrder = ["xformOp:translate", "xformOp:orient", "xformOp:scale"]
            }
        }

        def Xform "collisions" (
            instanceable = false
        )
        {
            def Xform "mesh_0"
            {
                uniform token purpose = "guide"
                quatd xformOp:orient = (0.7071067690849304, 0, 0.7071067690849304, 0)
                double3 xformOp:scale = (1, 1, 1)
                double3 xformOp:translate = (0, 0, 0)
                uniform token[] xformOpOrder = ["xformOp:translate", "xformOp:orient", "xformOp:scale"]

                def Cylinder "cylinder" (
                    prepend apiSchemas = ["PhysicsCollisionAPI"]
                )
                {
                    uniform token axis = "Z"
                    float3[] extent = [(-0.085, -0.085, -0.017), (0.085, 0.085, 0.017)]
                    double height = 0.03400000184774399
                    double radius = 0.08500000089406967
                }
            }
        }
    }

    def Scope "Looks"
    {
    }

    def Scope "VisualMaterials"
    {
    }
}

