#usda 1.0
(
    customLayerData = {
        dictionary cameraSettings = {
            dictionary Front = {
                double3 position = (5, 0, 0)
                double radius = 5
            }
            dictionary Perspective = {
                double3 position = (0.5053281923184302, 0.6418113417091509, 0.3745151614975866)
                double3 target = (0.09862803209112808, -0.11409713553955225, 0.0437882598658238)
            }
            dictionary Right = {
                double3 position = (0, -5, 0)
                double radius = 5
            }
            dictionary Top = {
                double3 position = (0, 0, 5)
                double radius = 5
            }
            string boundCamera = "/OmniverseKit_Persp"
        }
        dictionary omni_layer = {
            string authoring_layer = "./Agilex_Tracer.usd"
        }
        dictionary renderSettings = {
        }
    }
    defaultPrim = "Agilex_Tracer"
    metersPerUnit = 1
    upAxis = "Z"
)

def "Agilex_Tracer"
{
}

