#usda 1.0
(
    defaultPrim = "Q1"
    doc = """Generated from Composed Stage of root layer /home/fiveages/libraries/FaSim-Isaac/robots/mobile_base/Linkhou/Q1/Q1.usd


Generated from Composed Stage of root layer /home/fiveages/libraries/FaSim-Isaac/robots/mobile_base/Linkhou/Q1/payloads/base.usd
"""
    metersPerUnit = 1
    subLayers = [
        @./robot.usda@
    ]
    upAxis = "Z"
)

def Xform "Q1"
{
    quatd xformOp:orient = (1, 0, 0, 0)
    double3 xformOp:scale = (1, 1, 1)
    double3 xformOp:translate = (0, 0, 0)
    uniform token[] xformOpOrder = ["xformOp:translate", "xformOp:orient", "xformOp:scale"]

    def Xform "base_footprint"
    {
        quatd xformOp:orient = (1, 0, 0, 0)
        double3 xformOp:scale = (1, 1, 1)
        double3 xformOp:translate = (0, 0, 0)
        uniform token[] xformOpOrder = ["xformOp:translate", "xformOp:orient", "xformOp:scale"]

        def Xform "base_link"
        {
            quatd xformOp:orient = (1, 0, 0, 0)
            double3 xformOp:scale = (1, 1, 1)
            double3 xformOp:translate = (0.03999999910593033, 0, 0.26499998569488525)
            uniform token[] xformOpOrder = ["xformOp:translate", "xformOp:orient", "xformOp:scale"]

            def Xform "chassis_back_camera"
            {
                quatd xformOp:orient = (0.6123723983764648, -0.3535533845424652, -0.3535533845424652, 0.6123723983764648)
                double3 xformOp:scale = (1, 1, 1)
                double3 xformOp:translate = (-0.3045400083065033, -0.02500000037252903, -0.23529000580310822)
                uniform token[] xformOpOrder = ["xformOp:translate", "xformOp:orient", "xformOp:scale"]
            }

            def Xform "chassis_front_camera"
            {
                quatd xformOp:orient = (0.4999999701976776, 0.4999999701976776, 0.4999999701976776, 0.4999999701976776)
                double3 xformOp:scale = (1, 1, 1)
                double3 xformOp:translate = (0.25999999046325684, 0.02500000037252903, -0.024150000885128975)
                uniform token[] xformOpOrder = ["xformOp:translate", "xformOp:orient", "xformOp:scale"]
            }

            def Xform "lidar_link"
            {
                quatd xformOp:orient = (1, 0, 0, 0)
                double3 xformOp:scale = (1, 1, 1)
                double3 xformOp:translate = (0.186939999461174, 0, -0.13232000172138214)
                uniform token[] xformOpOrder = ["xformOp:translate", "xformOp:orient", "xformOp:scale"]
            }

            def Xform "scan"
            {
                quatd xformOp:orient = (1, 0, 0, 0)
                double3 xformOp:scale = (1, 1, 1)
                double3 xformOp:translate = (0.1878499984741211, 0, -0.0897890031337738)
                uniform token[] xformOpOrder = ["xformOp:translate", "xformOp:orient", "xformOp:scale"]
            }
        }

        def Xform "imu"
        {
            quatd xformOp:orient = (1, 0, 0, 0)
            double3 xformOp:scale = (1, 1, 1)
            double3 xformOp:translate = (0, 0, 0.12999999523162842)
            uniform token[] xformOpOrder = ["xformOp:translate", "xformOp:orient", "xformOp:scale"]
        }

        def Xform "visuals" (
            instanceable = false
        )
        {
            def Xform "base" (
                instanceable = true
                prepend references = @./instances.usda@</Instances/mesh>
            )
            {
                token visibility = "inherited"
                quatd xformOp:orient = (1, 0, 0, 0)
                double3 xformOp:scale = (1, 1, 1)
                double3 xformOp:translate = (0.03999999911, 0, 0.2649999857)
                uniform token[] xformOpOrder = ["xformOp:translate", "xformOp:orient", "xformOp:scale"]
            }
        }

        def Xform "collisions" (
            instanceable = false
        )
        {
            def Xform "mesh_0"
            {
                uniform token purpose = "guide"
                quatd xformOp:orient = (1, 0, 0, 0)
                double3 xformOp:scale = (0.5796093940734863, 0.4490000009536743, 0.27073436975479126)
                double3 xformOp:translate = (0.014999998733401299, 0, 0.1249999850988388)
                uniform token[] xformOpOrder = ["xformOp:translate", "xformOp:orient", "xformOp:scale"]

                def Cube "box" (
                    prepend apiSchemas = ["PhysicsCollisionAPI"]
                )
                {
                    float3[] extent = [(-0.2898047, -0.2245, -0.13536718), (0.2898047, 0.2245, 0.13536718)]
                    double size = 1
                }
            }

            def Xform "mesh_1"
            {
                uniform token purpose = "guide"
                quatd xformOp:orient = (1, 0, 0, 0)
                double3 xformOp:scale = (1, 1, 1)
                double3 xformOp:translate = (0.21473199129104614, 0.11994799971580505, 0.0065724788403511)
                uniform token[] xformOpOrder = ["xformOp:translate", "xformOp:orient", "xformOp:scale"]

                def Sphere "sphere" (
                    prepend apiSchemas = ["PhysicsCollisionAPI"]
                )
                {
                    float3[] extent = [(-0.0374275, -0.0374275, -0.0374275), (0.0374275, 0.0374275, 0.0374275)]
                    double radius = 0.037427499890327454
                }
            }

            def Xform "mesh_2"
            {
                uniform token purpose = "guide"
                quatd xformOp:orient = (1, 0, 0, 0)
                double3 xformOp:scale = (1, 1, 1)
                double3 xformOp:translate = (0.21473199129104614, -0.11994799971580505, 0.0065724788403511)
                uniform token[] xformOpOrder = ["xformOp:translate", "xformOp:orient", "xformOp:scale"]

                def Sphere "sphere" (
                    prepend apiSchemas = ["PhysicsCollisionAPI"]
                )
                {
                    float3[] extent = [(-0.0374275, -0.0374275, -0.0374275), (0.0374275, 0.0374275, 0.0374275)]
                    double radius = 0.037427499890327454
                }
            }

            def Xform "mesh_3"
            {
                uniform token purpose = "guide"
                quatd xformOp:orient = (1, 0, 0, 0)
                double3 xformOp:scale = (1, 1, 1)
                double3 xformOp:translate = (-0.18780899047851562, 0.11994799971580505, 0.0065724788403511)
                uniform token[] xformOpOrder = ["xformOp:translate", "xformOp:orient", "xformOp:scale"]

                def Sphere "sphere" (
                    prepend apiSchemas = ["PhysicsCollisionAPI"]
                )
                {
                    float3[] extent = [(-0.0374275, -0.0374275, -0.0374275), (0.0374275, 0.0374275, 0.0374275)]
                    double radius = 0.037427499890327454
                }
            }

            def Xform "mesh_4"
            {
                uniform token purpose = "guide"
                quatd xformOp:orient = (1, 0, 0, 0)
                double3 xformOp:scale = (1, 1, 1)
                double3 xformOp:translate = (-0.18780899047851562, -0.11994799971580505, 0.0065724788403511)
                uniform token[] xformOpOrder = ["xformOp:translate", "xformOp:orient", "xformOp:scale"]

                def Sphere "sphere" (
                    prepend apiSchemas = ["PhysicsCollisionAPI"]
                )
                {
                    float3[] extent = [(-0.0374275, -0.0374275, -0.0374275), (0.0374275, 0.0374275, 0.0374275)]
                    double radius = 0.037427499890327454
                }
            }
        }
    }

    def Xform "left_wheel"
    {
        quatd xformOp:orient = (1, 0, 0, 0)
        double3 xformOp:scale = (1, 1, 1)
        double3 xformOp:translate = (0.013348998501896858, 0.20624999701976776, 0.044984981417655945)
        uniform token[] xformOpOrder = ["xformOp:translate", "xformOp:orient", "xformOp:scale"]

        def Xform "visuals" (
            instanceable = false
        )
        {
            def Xform "wheel" (
                instanceable = true
                prepend references = @./instances.usda@</Instances/mesh_1>
            )
            {
                token visibility = "inherited"
            }
        }

        def Xform "collisions" (
            instanceable = false
        )
        {
            def Xform "mesh_0"
            {
                uniform token purpose = "guide"
                quatd xformOp:orient = (0.7071055173873901, 0.7071080803871155, 0, 0)
                double3 xformOp:scale = (1, 1, 1)
                double3 xformOp:translate = (0, -0.01899999938905239, 0)
                uniform token[] xformOpOrder = ["xformOp:translate", "xformOp:orient", "xformOp:scale"]

                def Cylinder "cylinder" (
                    prepend apiSchemas = ["PhysicsCollisionAPI"]
                )
                {
                    uniform token axis = "Z"
                    float3[] extent = [(-0.07585, -0.07585, -0.018), (0.07585, 0.07585, 0.018)]
                    double height = 0.035999998450279236
                    double radius = 0.0758500024676323
                }
            }
        }
    }

    def Scope "joints"
    {
    }

    def Xform "right_wheel"
    {
        quatd xformOp:orient = (1, 0, 0, 0)
        double3 xformOp:scale = (1, 1, 1)
        double3 xformOp:translate = (0.013348998501896858, -0.20624999701976776, 0.044984981417655945)
        uniform token[] xformOpOrder = ["xformOp:translate", "xformOp:orient", "xformOp:scale"]

        def Xform "visuals" (
            instanceable = false
        )
        {
            def Xform "wheel" (
                instanceable = true
                prepend references = @./instances.usda@</Instances/mesh_1>
            )
            {
                token visibility = "inherited"
                quatd xformOp:orient = (0, 0, 0, 1)
                double3 xformOp:scale = (-1, 1, 1)
                double3 xformOp:translate = (0, 0, 0)
                uniform token[] xformOpOrder = ["xformOp:translate", "xformOp:orient", "xformOp:scale"]
            }
        }

        def Xform "collisions" (
            instanceable = false
        )
        {
            def Xform "mesh_0"
            {
                uniform token purpose = "guide"
                quatd xformOp:orient = (0.7071055173873901, 0.7071080803871155, 0, 0)
                double3 xformOp:scale = (1, 1, 1)
                double3 xformOp:translate = (0, 0.01899999938905239, 0)
                uniform token[] xformOpOrder = ["xformOp:translate", "xformOp:orient", "xformOp:scale"]

                def Cylinder "cylinder" (
                    prepend apiSchemas = ["PhysicsCollisionAPI"]
                )
                {
                    uniform token axis = "Z"
                    float3[] extent = [(-0.07585, -0.07585, -0.018), (0.07585, 0.07585, 0.018)]
                    double height = 0.035999998450279236
                    double radius = 0.0758500024676323
                }
            }
        }
    }

    def Scope "Looks"
    {
    }

    def Scope "VisualMaterials"
    {
    }
}

