#usda 1.0
(
    defaultPrim = "Linkhou_S2_V1"
    doc = """Generated from Composed Stage of root layer /home/fiveages/Documents/FaSim-Isaac/robots/mobile_base/Linkhou_S2_V1/Linkhou_S2_V1.usd


Generated from Composed Stage of root layer /home/fiveages/Documents/FaSim-Isaac/robots/mobile_base/Linkhou_S2_V1/payloads/base.usd
"""
    metersPerUnit = 1
    subLayers = [
        @./robot.usda@
    ]
    upAxis = "Z"
)

def Xform "Linkhou_S2_V1"
{
    quatd xformOp:orient = (1, 0, 0, 0)
    double3 xformOp:scale = (1, 1, 1)
    double3 xformOp:translate = (0, 0, 0)
    uniform token[] xformOpOrder = ["xformOp:translate", "xformOp:orient", "xformOp:scale"]

    def Xform "base_footprint"
    {
        quatd xformOp:orient = (1, 0, 0, 0)
        double3 xformOp:scale = (1, 1, 1)
        double3 xformOp:translate = (0, 0, 0)
        uniform token[] xformOpOrder = ["xformOp:translate", "xformOp:orient", "xformOp:scale"]

        def Xform "base_link"
        {
            quatd xformOp:orient = (1, 0, 0, 0)
            double3 xformOp:scale = (1, 1, 1)
            double3 xformOp:translate = (0, 0, 0.03999999910593033)
            uniform token[] xformOpOrder = ["xformOp:translate", "xformOp:orient", "xformOp:scale"]

            def Xform "chassis_base"
            {
                quatd xformOp:orient = (-4.371138828673793e-8, -0, 0, 1)
                double3 xformOp:scale = (1, 1, 1)
                double3 xformOp:translate = (0, 0, 0)
                uniform token[] xformOpOrder = ["xformOp:translate", "xformOp:orient", "xformOp:scale"]

                def Xform "chassis_camera"
                {
                    quatd xformOp:orient = (0.4999999701976776, -0.4999999701976776, -0.4999999701976776, 0.4999999701976776)
                    double3 xformOp:scale = (1, 1, 1)
                    double3 xformOp:translate = (-0.34380000829696655, -0.0003202799998689443, 0.1589999943971634)
                    uniform token[] xformOpOrder = ["xformOp:translate", "xformOp:orient", "xformOp:scale"]
                }

                def Xform "chassis_left_battery"
                {
                    quatd xformOp:orient = (1, 0, 0, 0)
                    double3 xformOp:scale = (1, 1, 1)
                    double3 xformOp:translate = (0, -0.2270900011062622, 0.20372000336647034)
                    uniform token[] xformOpOrder = ["xformOp:translate", "xformOp:orient", "xformOp:scale"]
                }

                def Xform "chassis_right_battery"
                {
                    quatd xformOp:orient = (-4.371138828673793e-8, -0, 0, 1)
                    double3 xformOp:scale = (1, 1, 1)
                    double3 xformOp:translate = (0, 0.2270900011062622, 0.20372000336647034)
                    uniform token[] xformOpOrder = ["xformOp:translate", "xformOp:orient", "xformOp:scale"]
                }

                def Xform "fl_lidar"
                {
                    quatd xformOp:orient = (0.9914448857307434, 0, -0.13052619993686676, 0)
                    double3 xformOp:scale = (1, 1, 1)
                    double3 xformOp:translate = (-0.22163300216197968, -0.20071500539779663, 0.3250739872455597)
                    uniform token[] xformOpOrder = ["xformOp:translate", "xformOp:orient", "xformOp:scale"]
                }

                def Xform "rr_lidar"
                {
                    quatd xformOp:orient = (-4.333743319762107e-8, 0.13052619993686676, 5.705481420648084e-9, 0.9914448857307434)
                    double3 xformOp:scale = (1, 1, 1)
                    double3 xformOp:translate = (0.22163300216197968, 0.20071500539779663, 0.3250739872455597)
                    uniform token[] xformOpOrder = ["xformOp:translate", "xformOp:orient", "xformOp:scale"]
                }
            }

            def Xform "ultrasonic_c1"
            {
                quatd xformOp:orient = (0.7071067690849304, 0.7071067690849304, 0, 0)
                double3 xformOp:scale = (1, 1, 1)
                double3 xformOp:translate = (-0.17390865087509155, -0.27250000834465027, 0.1881520003080368)
                uniform token[] xformOpOrder = ["xformOp:translate", "xformOp:orient", "xformOp:scale"]
            }

            def Xform "ultrasonic_c2"
            {
                quatd xformOp:orient = (0.7071067690849304, 0.7071067690849304, 0, 0)
                double3 xformOp:scale = (1, 1, 1)
                double3 xformOp:translate = (0.17397424578666687, -0.27250000834465027, 0.1881520003080368)
                uniform token[] xformOpOrder = ["xformOp:translate", "xformOp:orient", "xformOp:scale"]
            }

            def Xform "ultrasonic_c3"
            {
                quatd xformOp:orient = (0.5755160450935364, 0.5755159854888916, 0.41082999110221863, 0.4108300507068634)
                double3 xformOp:scale = (1, 1, 1)
                double3 xformOp:translate = (0.32715022563934326, -0.1813051402568817, 0.1623619943857193)
                uniform token[] xformOpOrder = ["xformOp:translate", "xformOp:orient", "xformOp:scale"]
            }

            def Xform "ultrasonic_c4"
            {
                quatd xformOp:orient = (0.410830020904541, 0.41082996129989624, 0.5755159854888916, 0.5755160450935364)
                double3 xformOp:scale = (1, 1, 1)
                double3 xformOp:translate = (0.32715022563934326, 0.1813051402568817, 0.1623619943857193)
                uniform token[] xformOpOrder = ["xformOp:translate", "xformOp:orient", "xformOp:scale"]
            }

            def Xform "ultrasonic_c5"
            {
                quatd xformOp:orient = (-3.0908619663705394e-8, -3.0908619663705394e-8, 0.7071067690849304, 0.7071067690849304)
                double3 xformOp:scale = (1, 1, 1)
                double3 xformOp:translate = (0.17397424578666687, 0.27250000834465027, 0.1881520003080368)
                uniform token[] xformOpOrder = ["xformOp:translate", "xformOp:orient", "xformOp:scale"]
            }

            def Xform "ultrasonic_c6"
            {
                quatd xformOp:orient = (-3.0908619663705394e-8, -3.0908619663705394e-8, -0.7071067690849304, -0.7071067690849304)
                double3 xformOp:scale = (1, 1, 1)
                double3 xformOp:translate = (-0.17390865087509155, 0.27250000834465027, 0.1881520003080368)
                uniform token[] xformOpOrder = ["xformOp:translate", "xformOp:orient", "xformOp:scale"]
            }

            def Xform "ultrasonic_c7"
            {
                quatd xformOp:orient = (0.4590488076210022, 0.4590488076210022, -0.5378421545028687, -0.5378421545028687)
                double3 xformOp:scale = (1, 1, 1)
                double3 xformOp:translate = (-0.3211945593357086, 0.16599999368190765, 0.1731649935245514)
                uniform token[] xformOpOrder = ["xformOp:translate", "xformOp:orient", "xformOp:scale"]
            }

            def Xform "ultrasonic_c8"
            {
                quatd xformOp:orient = (0.5378421545028687, 0.5378421545028687, -0.4590487480163574, -0.4590487480163574)
                double3 xformOp:scale = (1, 1, 1)
                double3 xformOp:translate = (-0.3211945593357086, -0.16599999368190765, 0.1731649935245514)
                uniform token[] xformOpOrder = ["xformOp:translate", "xformOp:orient", "xformOp:scale"]
            }
        }

        def Xform "visuals" (
            instanceable = false
        )
        {
            def Xform "base_link" (
                instanceable = true
                prepend references = @./instances.usda@</Instances/mesh>
            )
            {
                token visibility = "inherited"
                quatd xformOp:orient = (0, 0, 0, 1)
                double3 xformOp:scale = (1, 1, 1)
                double3 xformOp:translate = (0, 0, 0.03999999911)
                uniform token[] xformOpOrder = ["xformOp:translate", "xformOp:orient", "xformOp:scale"]
            }
        }

        def Xform "collisions" (
            instanceable = false
        )
        {
            def Xform "base_link" (
                instanceable = true
                prepend references = @./instances.usda@</Instances/mesh_1>
            )
            {
                uniform token purpose = "guide"
                token visibility = "inherited"
                quatd xformOp:orient = (0, 0, 0, 1)
                double3 xformOp:scale = (1, 1, 1)
                double3 xformOp:translate = (0, 0, 0.03999999911)
                uniform token[] xformOpOrder = ["xformOp:translate", "xformOp:orient", "xformOp:scale"]
            }
        }
    }

    def Xform "fl_steer"
    {
        quatd xformOp:orient = (1, 0, 0, 0)
        double3 xformOp:scale = (1, 1, 1)
        double3 xformOp:translate = (0.23071999847888947, 0.21738000214099884, 0.20600000023841858)
        uniform token[] xformOpOrder = ["xformOp:translate", "xformOp:orient", "xformOp:scale"]

        def Xform "visuals" (
            instanceable = false
        )
        {
            def Xform "steer_link" (
                instanceable = true
                prepend references = @./instances.usda@</Instances/mesh_1_1>
            )
            {
                token visibility = "inherited"
            }
        }

        def Xform "collisions"
        {
        }
    }

    def Scope "joints"
    {
    }

    def Xform "fl_wheel"
    {
        quatd xformOp:orient = (1, 0, 0, 0)
        double3 xformOp:scale = (1, 1, 1)
        double3 xformOp:translate = (0.23143653571605682, 0.21381400525569916, 0.06999999284744263)
        uniform token[] xformOpOrder = ["xformOp:translate", "xformOp:orient", "xformOp:scale"]

        def Xform "visuals" (
            instanceable = false
        )
        {
            def Xform "wheel" (
                instanceable = true
                prepend references = @./instances.usda@</Instances/mesh_2>
            )
            {
                token visibility = "inherited"
            }
        }

        def Xform "collisions" (
            instanceable = false
        )
        {
            def Xform "mesh_0"
            {
                uniform token purpose = "guide"
                quatd xformOp:orient = (0.7071067690849304, 0.7071067690849304, 0, 0)
                double3 xformOp:scale = (1, 1, 1)
                double3 xformOp:translate = (0, 0, 0)
                uniform token[] xformOpOrder = ["xformOp:translate", "xformOp:orient", "xformOp:scale"]

                def Cylinder "cylinder" (
                    prepend apiSchemas = ["PhysicsCollisionAPI"]
                )
                {
                    uniform token axis = "Z"
                    float3[] extent = [(-0.07, -0.07, -0.023), (0.07, 0.07, 0.023)]
                    double height = 0.04600000008940697
                    double radius = 0.07000000029802322
                }
            }
        }
    }

    def Xform "fr_steer"
    {
        quatd xformOp:orient = (1, 0, 0, 0)
        double3 xformOp:scale = (1, 1, 1)
        double3 xformOp:translate = (0.2292799949645996, -0.21738000214099884, 0.20600000023841858)
        uniform token[] xformOpOrder = ["xformOp:translate", "xformOp:orient", "xformOp:scale"]

        def Xform "visuals" (
            instanceable = false
        )
        {
            def Xform "steer_link" (
                instanceable = true
                prepend references = @./instances.usda@</Instances/mesh_1_1>
            )
            {
                token visibility = "inherited"
                quatd xformOp:orient = (0, 0, 0, 1)
                double3 xformOp:scale = (-1, 1, 1)
                double3 xformOp:translate = (0, 0, 0)
                uniform token[] xformOpOrder = ["xformOp:translate", "xformOp:orient", "xformOp:scale"]
            }
        }

        def Xform "collisions"
        {
        }
    }

    def Xform "fr_wheel"
    {
        quatd xformOp:orient = (1, 0, 0, 0)
        double3 xformOp:scale = (1, 1, 1)
        double3 xformOp:translate = (0.22856345772743225, -0.22094599902629852, 0.06999999284744263)
        uniform token[] xformOpOrder = ["xformOp:translate", "xformOp:orient", "xformOp:scale"]

        def Xform "visuals" (
            instanceable = false
        )
        {
            def Xform "wheel" (
                instanceable = true
                prepend references = @./instances.usda@</Instances/mesh_2>
            )
            {
                token visibility = "inherited"
                quatd xformOp:orient = (0, 0, 0, 1)
                double3 xformOp:scale = (-1, 1, 1)
                double3 xformOp:translate = (0, 0, 0)
                uniform token[] xformOpOrder = ["xformOp:translate", "xformOp:orient", "xformOp:scale"]
            }
        }

        def Xform "collisions" (
            instanceable = false
        )
        {
            def Xform "mesh_0"
            {
                uniform token purpose = "guide"
                quatd xformOp:orient = (0.7071067690849304, 0.7071067690849304, 0, 0)
                double3 xformOp:scale = (1, 1, 1)
                double3 xformOp:translate = (0, 0, 0)
                uniform token[] xformOpOrder = ["xformOp:translate", "xformOp:orient", "xformOp:scale"]

                def Cylinder "cylinder" (
                    prepend apiSchemas = ["PhysicsCollisionAPI"]
                )
                {
                    uniform token axis = "Z"
                    float3[] extent = [(-0.07, -0.07, -0.023), (0.07, 0.07, 0.023)]
                    double height = 0.04600000008940697
                    double radius = 0.07000000029802322
                }
            }
        }
    }

    def Xform "rl_steer"
    {
        quatd xformOp:orient = (1, 0, 0, 0)
        double3 xformOp:scale = (1, 1, 1)
        double3 xformOp:translate = (-0.2292799949645996, 0.21738000214099884, 0.20600000023841858)
        uniform token[] xformOpOrder = ["xformOp:translate", "xformOp:orient", "xformOp:scale"]

        def Xform "visuals" (
            instanceable = false
        )
        {
            def Xform "steer_link" (
                instanceable = true
                prepend references = @./instances.usda@</Instances/mesh_1_1>
            )
            {
                token visibility = "inherited"
            }
        }

        def Xform "collisions"
        {
        }
    }

    def Xform "rl_wheel"
    {
        quatd xformOp:orient = (1, 0, 0, 0)
        double3 xformOp:scale = (1, 1, 1)
        double3 xformOp:translate = (-0.22856345772743225, 0.22094599902629852, 0.06999999284744263)
        uniform token[] xformOpOrder = ["xformOp:translate", "xformOp:orient", "xformOp:scale"]

        def Xform "visuals" (
            instanceable = false
        )
        {
            def Xform "wheel" (
                instanceable = true
                prepend references = @./instances.usda@</Instances/mesh_2>
            )
            {
                token visibility = "inherited"
            }
        }

        def Xform "collisions" (
            instanceable = false
        )
        {
            def Xform "mesh_0"
            {
                uniform token purpose = "guide"
                quatd xformOp:orient = (0.7071067690849304, 0.7071067690849304, 0, 0)
                double3 xformOp:scale = (1, 1, 1)
                double3 xformOp:translate = (0, 0, 0)
                uniform token[] xformOpOrder = ["xformOp:translate", "xformOp:orient", "xformOp:scale"]

                def Cylinder "cylinder" (
                    prepend apiSchemas = ["PhysicsCollisionAPI"]
                )
                {
                    uniform token axis = "Z"
                    float3[] extent = [(-0.07, -0.07, -0.023), (0.07, 0.07, 0.023)]
                    double height = 0.04600000008940697
                    double radius = 0.07000000029802322
                }
            }
        }
    }

    def Xform "rr_steer"
    {
        quatd xformOp:orient = (1, 0, 0, 0)
        double3 xformOp:scale = (1, 1, 1)
        double3 xformOp:translate = (-0.23071999847888947, -0.21738000214099884, 0.20600000023841858)
        uniform token[] xformOpOrder = ["xformOp:translate", "xformOp:orient", "xformOp:scale"]

        def Xform "visuals" (
            instanceable = false
        )
        {
            def Xform "steer_link" (
                instanceable = true
                prepend references = @./instances.usda@</Instances/mesh_1_1>
            )
            {
                token visibility = "inherited"
                quatd xformOp:orient = (0, 0, 0, 1)
                double3 xformOp:scale = (-1, 1, 1)
                double3 xformOp:translate = (0, 0, 0)
                uniform token[] xformOpOrder = ["xformOp:translate", "xformOp:orient", "xformOp:scale"]
            }
        }

        def Xform "collisions"
        {
        }
    }

    def Xform "rr_wheel"
    {
        quatd xformOp:orient = (1, 0, 0, 0)
        double3 xformOp:scale = (1, 1, 1)
        double3 xformOp:translate = (-0.23143653571605682, -0.22094599902629852, 0.06999999284744263)
        uniform token[] xformOpOrder = ["xformOp:translate", "xformOp:orient", "xformOp:scale"]

        def Xform "visuals" (
            instanceable = false
        )
        {
            def Xform "wheel" (
                instanceable = true
                prepend references = @./instances.usda@</Instances/mesh_2>
            )
            {
                token visibility = "inherited"
                quatd xformOp:orient = (0, 0, 0, 1)
                double3 xformOp:scale = (-1, 1, 1)
                double3 xformOp:translate = (0, 0, 0)
                uniform token[] xformOpOrder = ["xformOp:translate", "xformOp:orient", "xformOp:scale"]
            }
        }

        def Xform "collisions" (
            instanceable = false
        )
        {
            def Xform "mesh_0"
            {
                uniform token purpose = "guide"
                quatd xformOp:orient = (0.7071067690849304, 0.7071067690849304, 0, 0)
                double3 xformOp:scale = (1, 1, 1)
                double3 xformOp:translate = (0, 0, 0)
                uniform token[] xformOpOrder = ["xformOp:translate", "xformOp:orient", "xformOp:scale"]

                def Cylinder "cylinder" (
                    prepend apiSchemas = ["PhysicsCollisionAPI"]
                )
                {
                    uniform token axis = "Z"
                    float3[] extent = [(-0.07, -0.07, -0.023), (0.07, 0.07, 0.023)]
                    double height = 0.04600000008940697
                    double radius = 0.07000000029802322
                }
            }
        }
    }

    def Scope "Looks"
    {
    }

    def Scope "VisualMaterials"
    {
    }
}

