#usda 1.0
(
    customLayerData = {
        dictionary cameraSettings = {
            dictionary Front = {
                double3 position = (5, 0, 0)
                double radius = 5
            }
            dictionary Perspective = {
                double3 position = (1.9036232340951362, 0.024990804290745378, 2.2302700537837223)
                double3 target = (-2.3691915606364433, -1.8680028187293432, -0.9880556114376469)
            }
            dictionary Right = {
                double3 position = (0, -5, 0)
                double radius = 5
            }
            dictionary Top = {
                double3 position = (0, 0, 5)
                double radius = 5
            }
            string boundCamera = "/OmniverseKit_Persp"
        }
        dictionary omni_layer = {
            string authoring_layer = "./Dual_Stand1.usd"
        }
        dictionary renderSettings = {
        }
    }
    defaultPrim = "Dual_Stand1"
    endTimeCode = 0
    metersPerUnit = 1
    startTimeCode = -1
    upAxis = "Z"
)

def "Dual_Stand1"
{
}

