#usda 1.0
(
    customLayerData = {
        dictionary cameraSettings = {
            dictionary Front = {
                double3 position = (5, 0, 0)
                double radius = 5
            }
            dictionary Perspective = {
                double3 position = (0.5225580054197179, 0.5809522109642956, 0.6811225435181014)
                double3 target = (-0.07231958526104076, -0.013925379716462793, 0.08624496703601814)
            }
            dictionary Right = {
                double3 position = (0, -5, 0)
                double radius = 5
            }
            dictionary Top = {
                double3 position = (0, 0, 5)
                double radius = 5
            }
            string boundCamera = "/OmniverseKit_Persp"
        }
        dictionary omni_layer = {
            string authoring_layer = "./Galaxea_A1Y.usd"
        }
        dictionary renderSettings = {
        }
    }
    defaultPrim = "Galaxea_A1Y"
    metersPerUnit = 1
    upAxis = "Z"
)

def "Galaxea_A1Y"
{
}

