#usda 1.0
(
    customLayerData = {
        dictionary cameraSettings = {
            dictionary Front = {
                double3 position = (5, 0, 0)
                double radius = 5
            }
            dictionary Perspective = {
                double3 position = (0.3814816376243953, 0.40852313434127063, 0.3180796411381741)
                double3 target = (-0.005495222481497752, -0.08890452369707164, -0.04831826588967941)
            }
            dictionary Right = {
                double3 position = (0, -5, 0)
                double radius = 5
            }
            dictionary Top = {
                double3 position = (0, 0, 5)
                double radius = 5
            }
            string boundCamera = "/OmniverseKit_Persp"
        }
        dictionary omni_layer = {
            string authoring_layer = "./OmniWheel_10.usd"
        }
        dictionary renderSettings = {
        }
    }
    defaultPrim = "OmniWheel_10"
    metersPerUnit = 1
    upAxis = "Z"
)

def Xform "OmniWheel_10"
{
}

